/* XPM */
static char *_538_69858a73a9f07c24308d6cf3498b0064ebb5e39da4156b4dafe95625bf4fc0b5[] = {
/* columns rows colors chars-per-pixel */
"64 64 238 2 ",
"   c #010303",
".  c #06080A",
"X  c #0B120C",
"o  c #0D1618",
"O  c #151C19",
"+  c #0E130E",
"@  c #1A2317",
"#  c #22251C",
"$  c #151B24",
"%  c #1C2627",
"&  c #192835",
"*  c #262A26",
"=  c #2A322A",
"-  c #2B3738",
";  c #353B35",
":  c #30362D",
">  c #3A4336",
",  c #3B402B",
"<  c #43493B",
"1  c #2F3C46",
"2  c #3C4546",
"3  c #394B52",
"4  c #434B48",
"5  c #4A544B",
"6  c #4A5447",
"7  c #555A4B",
"8  c #454E51",
"9  c #435452",
"0  c #4C5454",
"q  c #4B5959",
"w  c #545D54",
"e  c #545C5C",
"r  c #575B58",
"t  c #5A6455",
"y  c #55625C",
"u  c #5B655C",
"i  c #5A6557",
"p  c #596351",
"a  c #626B5C",
"s  c #656958",
"d  c #6E755D",
"f  c #77795D",
"g  c #485965",
"h  c #545D63",
"j  c #5A6264",
"k  c #5D6A63",
"l  c #5E6D6A",
"z  c #566367",
"x  c #5D716C",
"c  c #596A74",
"v  c #556772",
"b  c #636D64",
"n  c #636D6B",
"m  c #666A62",
"M  c #657063",
"N  c #6B7464",
"B  c #65726B",
"V  c #6B756B",
"C  c #6D796B",
"Z  c #6C7A66",
"A  c #737B65",
"S  c #747B6C",
"D  c #787B69",
"F  c #616D73",
"G  c #657374",
"H  c #6C7574",
"J  c #6C7A74",
"K  c #6B7B7D",
"L  c #67767B",
"P  c #737D73",
"I  c #727C7C",
"U  c #747A75",
"Y  c #7B826D",
"T  c #758274",
"R  c #7B8374",
"E  c #75827B",
"W  c #7B847B",
"Q  c #7E8A7C",
"!  c #778877",
"~  c #6E837A",
"^  c #848A74",
"/  c #848B7C",
"(  c #848978",
")  c #8C937D",
"_  c #85917F",
"`  c #8C8D76",
"'  c #6B7C84",
"]  c #6E7E89",
"[  c #667784",
"{  c #737C82",
"}  c #7B7F82",
"|  c #5B6C80",
" . c #6F8088",
".. c #748284",
"X. c #7A8484",
"o. c #7D8A83",
"O. c #74848B",
"+. c #7A868B",
"@. c #76888D",
"#. c #7B8A8D",
"$. c #778883",
"%. c #758691",
"&. c #768992",
"*. c #7B8C93",
"=. c #7C8C97",
"-. c #7E9195",
";. c #838D83",
":. c #838C8C",
">. c #848883",
",. c #8B9484",
"<. c #85928B",
"1. c #8B948C",
"2. c #8E9A8C",
"3. c #879384",
"4. c #939A85",
"5. c #949B8C",
"6. c #999E8D",
"7. c #919587",
"8. c #838D92",
"9. c #818F98",
"0. c #839295",
"q. c #8A9494",
"w. c #8D9A94",
"e. c #84949A",
"r. c #8A949A",
"t. c #8B9A9C",
"y. c #86999C",
"u. c #939C94",
"i. c #999F94",
"p. c #929D9C",
"a. c #929596",
"s. c #9AA28D",
"d. c #96A293",
"f. c #9BA394",
"g. c #95A19B",
"h. c #9AA49B",
"j. c #9DA99B",
"k. c #9CAA93",
"l. c #9EB09B",
"z. c #A4AB9C",
"x. c #A4A898",
"c. c #A9B29D",
"v. c #A2A58D",
"b. c #8C9DA2",
"n. c #8797A2",
"m. c #929EA3",
"M. c #8EA1A5",
"N. c #93A2A4",
"B. c #9BA4A3",
"V. c #9DA9A2",
"C. c #94A4A9",
"Z. c #9CAAAC",
"A. c #9AA5AB",
"S. c #9DACB2",
"D. c #9AABB4",
"F. c #9EB1B6",
"G. c #A3ACA3",
"H. c #A3ADAB",
"J. c #AAAFA0",
"K. c #A6B2A4",
"L. c #ABB3A4",
"P. c #A5B2AB",
"I. c #ABB5AB",
"U. c #ADBAAC",
"Y. c #ADB9A6",
"T. c #B2B6AB",
"R. c #B4BBAC",
"E. c #B4B9A8",
"W. c #A2ADB3",
"Q. c #A1AEBA",
"!. c #A4B3B4",
"~. c #ABB4B3",
"^. c #ADBAB4",
"/. c #A4B5BB",
"(. c #ABBABC",
"). c #AAB7BA",
"_. c #B3BCB4",
"`. c #BABDB3",
"'. c #B3BDBC",
"]. c #B7BBBA",
"[. c #B6C0AD",
"{. c #B5C2B4",
"}. c #BBC3B4",
"|. c #B5C2BB",
" X c #BBC5BB",
".X c #BCC9BC",
"XX c #BBC9B8",
"oX c #C2C6BB",
"OX c #C3CBBC",
"+X c #C4C8B8",
"@X c #CAD3BE",
"#X c #ACBCC3",
"$X c #A8B8C0",
"%X c #B2BEC4",
"&X c #AEC1C5",
"*X c #B5C3C4",
"=X c #BBC5C4",
"-X c #BCCAC4",
";X c #B4C4CB",
":X c #BBCBCB",
">X c #B6C8CA",
",X c #BFD1C8",
"<X c #BBCDD2",
"1X c #B8C6D1",
"2X c #BED1D4",
"3X c #C4CCC3",
"4X c #C3CDCB",
"5X c #C8CAC5",
"6X c #CCD4C5",
"7X c #C5D2CB",
"8X c #CBD3CC",
"9X c #C6D4C9",
"0X c #D3D8CA",
"qX c #C3CED3",
"wX c #C2D3D5",
"eX c #CCD6D3",
"rX c #CCDBD4",
"tX c #C4D5D9",
"yX c #CCDBDC",
"uX c #C7D9D9",
"iX c #D3DCD4",
"pX c #DBDDD3",
"aX c #D2DDDD",
"sX c #D8DBD8",
"dX c #CEE1DC",
"fX c #DBE2DB",
"gX c #D8E2D7",
"hX c #E2E4DB",
"jX c #E3E5D8",
"kX c #CDDCE1",
"lX c #D2DEE1",
"zX c #DBDEE3",
"xX c #CEE2E1",
"cX c #D4E3E3",
"vX c #DAEBEB",
"bX c #D9E7E5",
"nX c #DCF1EE",
"mX c #EFF2EB",
/* pixels */
"C.C.C.m.m.A.A.A.A.m.A.W.W.D.W.W.Q.D.W.Q.Q.D.D.$X$X$X$X$X%X%X1X1X1X1XqXqXqXtXtXtXyXaXkXaXaXlXlXlXzXzXzXxXcXaXcXlXcXkXyXyXkXkX2X2X",
"m.C.D.D.C.m.n.C.C.A.D.D.Z.A.A.Z.W.A.A.A.Q.A.W.W.Q.$XQ.$X$X$X%X1X%X1X1X1X%XtXqXqXkXtXqXyXyXyXyXyXaXlXyXkXyXyXyXyXlXyXyXyX2XtX2X2X",
"m.r.z h 8.A.A.A.C.+.F r.!.~.W./.$X~.W.).W.W.W.W.W.$X$X$X%X%X1XqX1X%XqXtXtXqXkXkXtXkXzXzXlXzXbXbXaXlXlXlXlXlXaXyXyXyXtXtXtXtXtX2X",
"m.{ * j & 8.h } { $ 8 H.} h p.H F 8.X.n m.W.Q.%X$X$Xm.m.A.A.a.} %XqXW.=.m.qX8.=.sX).} m.%X%X~.~.cXaXaXyXdXyXyXyXyXyXtXtXtXtX2X<X",
"m.} * 4 1 m - ; 2 0 0 0 1 h 4 G % V 0 = j #XK 8 H %XF 4 8 r 2 1 j lXr 1 8 { h j :.{ 8 0 a.* 0 :XlXyXkXvXkXyXcXyXkXkX2XtX2X2X2X<X",
"C.{ $ F a.2 2 ; 2 n e - 4 >.2 :.# 7 = # h #XK j { %XF 1 8 8 1 h [ kXr 0 8 r U } F m B.j q.% 4 4XaXbX7Xp.a.>.:.rXtXtXkXtX2X2X<X<X",
"b.=.g m.q.h 0 e >.1 4 t.u 1 X.S s ) 4 ; 5 i.|.F.Q.$X} 9.8.8.{ 0 A.qX8.h { %Xh j W.n %X8.A.A.b.r.vX!.b s U A i j.kX<XtX2X2X<X<X1X",
"n.n.n.8.8.r.n.n.a.p.N.N.B.Z.u.E.6X6X6X_.,.D 2.!.D.Q.$X$X$X%X$X%X1X%X%XqXtXqXkXlXtXkXkXzXkXlXvXuXB.0 < ) E.E.[.5.%XtX2X2X2X<X<X;X",
"e.y.-.-.n.-.e.e.e.e.r.t.b.y.2.@XOXwX4XeX3X) ^ s.]./.F.F.$XF.F.$X%X%X%X%X>X<X<X2X2X2X2XkXtXtX>Xo.i N ^..X|.|.@X[.~.kX2X<X<X<X>X&X",
"0.-.-.-.-.-.-.-.9.e.y.t.p.w..XgX|.=X>X-XrX9X2.d / (./.D.F.F./.(.$X%X1X1X1X1X<X<X<X2XtX2X|.u.;.7 T -X>X{.{.|..X3XH.qX<X<X1X1X;X&X",
"*.=.*.*.*.-.0.=.9.0.y.r.t.U.gX9X*X-X-X>X-XrX.XY R f.H.F.F.F.F.!./.#X#X%X;X%X1XqX<X1X<XqXw.b p T {.:X|.!.|.|.~.3X].=X<X1X;X;X&X#X",
"*.*.*.*.*.=.*.*.*.e.e.r.p.,XgX,XI.P.>X:X-X*X9Xz.A ^ k.U.-X-X~.'.).'.%X#X*XqX%X%X1X<X%Xr.;.i M R..X-X>X-X).g.P.3XeX=X:X>X;X&X$X$X",
"*.*.*.*.*.*.*.y.-.0.e.0.!.dXrX-Xw.j o.'.>X,X9X,Xs.v.s.,.R I.{.K.].H.G.K.K.G.G.~.].u.;.1.i.^ f.|.-X|.*X<.z l g.XXgX,X>X&X&X$X$XF.",
"*.&.*.@.*.*.*.*.*.y.r.8.Z.gXgX3XB.w F V.{.,X9X.XL.s.z.,.i ) f.i.5.x._ N S D ,.1.W w t ( ^ s.K._._._.,Xx * n G._.dXuX&X&X$X/.D.D.",
"&.%.%.&.*.*.*.*.*.b.p.8.B.iXfX4Xg.e 2 o.:X7X9X-XY.^ d W : ; S / 3.5.b t / ,.R B 0 w s U D ,.{..X-X^.B.5 = X.d.|.vXrX|.F./.F.D.Z.",
"@.%.%.%.@.%.*.*.*.0.9.r.m.rXbXrX|.W q E |.7X4XOXY.p < 4 4 6 N R 3.R Q q.<.<.;.H e ; r V 5 _ R..X7X=Xg.e y <.P.gXfXwX)./.F.D.Z.M.",
"+...O.%.@.@.*.*.*.0.e.r.r.'.gXdX9XK.u V |.9X X{.4.> + > g.2.f.( C N V J n ! T u 1.J d , > Y K.[. X=XE 4 V w.3XgXfX-X/./.C.C.C.M.",
"+...O.O.@.&.&.*.*.=.9.r.9.G.iXOXK.K.Q u C H.U.j.Z @ , ! 2._ / R T Y 6 6 u i a Y Y Y Z p : p d.K.I.I.;.i 3.I. XiX7XH.Q.S.C.N.M.M.",
"+.+.O.O.@.@.&.*.*.-.-.0.r._.gX6XXXK./ 6 @ 5 2.6.6 6 3.2.2.! >.U C ! t 4 u P N a Z / ) l.Y < C d.z.U t a 3.f.Y.0XiXW.S.A.C.M.y.y.",
"&.@.O.%.*.*.*.*.-.-.-.0.n.).gX0X0X{.k.s < s ; 7 a o.3.! T B k k I b w V 5 e y C T ! Q 4.s.p Z Q R 7 7 R s.XX@XjX8XW.m.C.M.b.y.y.",
"O.@.%.%.*.*.@.*.*.-.-.-.r.K.6X0X@X`.i.A ) / w ; 3.w.J ~ ~ J k k $.G n e r 7 y b B B W 2.2.Q N a / P s ( T.OX0XjX4XA.C.C.t.y.y.e.",
"..O.O.%.@.*.*.*.*.-.-.0.0.<.L.0X+XL.S A ) Y U R Q k y 3 q n J W B n n 0 w P P l q M y l ;.Q Q _ 7._ N d z.+X@X0X~.W.A.m.M.y.y.-.",
"O.]  . .O.@.*.*.*.-.=.9.e.:.8XhXjXx.( a.2.`.8XR k J l I q.<.H U E y 6 m k W :.:.r.H b B J b R C R 5.( s ^ E.@X+Xa.W.m.m.y.y.e.-.",
"&...O.O.O.O.*.*.*.=.-.9.8.:.fXE.jXJ.5XsX].sXoXU a.sX~.B.bX4X~.5X XV >.n y C a.zXsXG.4XaXw.4X4X1.7 x.pX5X7.pXjX`.8XzX8X].%X4Xg.$.",
"+.O.O.O.O.O.=.*.&.*.=.-.8.:.pXjXT.W oXeX].B.U eX8XI aX:.8XH.~._.fXn J iX=X3.:.B.fX=X_.].H.^.q.8X5 T.0XpXjXE.E.pXjXH.sXeXmX4X} :.",
"O.O.O.O.@...*.*.*.=.*.*.*.#.pXx.s G.5X5Xo.|.=XB.%XaX8XI 4Xw.sX3X=XV y k B U w.8XmXa.T.I.<.3X-XG.0 H.5X8Xz.6XpX8XsXsXeX:XqXaXB.>.",
"O.*.O.O.@.@.O.%.&.=.*.*.*.<.G.6.p > V r 9 K *.h X.Z.X.W 1.C w.g.T I y u E b P u.,.S Y R S W q.l n B V r 7 ,.R.P.zX'.C.p.a.a.a.>.",
"..@.&.&.%.%.%.%.@.&.*.@.8.W f.,.6 4 5 4 z l h v l 0 4 7 S Q Q W k J 5 2 y j B.7./ 7.d s 6 w G y I :.0 t r < Q {.'.t.y.q.q.8.:.:.",
" .O.O.&.&.%.=.&.%.&.*.o.<./ f._ Z a q ~ J l B 8 6 d ^ ) 4.x.z.d.5 5 j p C <.B.I.[.6.) ) ( P w J K W K C C a R V.Z.m.t.a.q.q.:.>.",
"] ] O.@.%.%.=.%.&.@.@.#.I w.h.P C T G G x G ..M 3.c.E.x.) E.L.k.l y 9 0 k I H.OXc.^ v.+X+Xj.Q w.<.V <.o.T 3.2.u.B.m.p.r.r.q.8.} ",
"..'  ... .O.O.%.@.O.*.E J u.;.W J o.$.x J G K t Y c.( A Y c.[.j.a y k 6 w o._.T.v.f p f 6.4.Y Q u.o.P <.R d.x.s.p.p.p.m.a.8.8.>.",
"' ] O.O.*. .&.&.O.@.t.y C o.H P B k y x ~ B y : T < = , < Y z.f.T 0 J a t >.I.E.f < < 7 O Y d s E J B W R ,.6.4.a.q.m.n.r.r.8.+.",
" .&.&.=.=. .@.@.@.O.B y <.~ l ~ y q q z z 0 = a T.R * > * = 6.c.S M y a 3.3.z.f.# # 7 : 7 E.) 6 r 0 n U W ! 1.k.d.2.g.t.q.0.:.#.",
" .@.@.%.%.@.O.O.@.l e :.B.E J x 2 y 9 9 2 = - Z 7.x.6.< = + s ) / M 3.1.u.f.k.` , < < d x.`.7.7 4 4 u I W 1.<.d.K.z.j.p.q.0.:.:.",
"~ O.%.%.%.&.@.O.K e k Z.Z.$.J 9 x 2 9 b - % y J R >.x.x.6.< s D S / i.u.z.I.k.d f x.c.c.x.E.7.m 7 - 0 r B W Q u.U.K.V.B.q.8.#.:.",
" . .%.-.=.%. .x 3 > B P.V.J x ~ ~ Q $.o.W E B Z U ( 6.v.x.v.^ ^ 4.z.z.I.I.`.Y.f ` x.x.x.v.) 7.>.o.T a.I B W o.3.K.U.g.p.q.0.8.+.",
"~  . .-.=.O. .z 2 5 <.{.B.H y J 1.P.g.V.V.^.<.T U T / k.j.z.k.K.R.`._.'.].=XsX+Xv.x.) ) Y U P d.P.{.].m.:.<.u.o.g._.B.<.t.q.#.*.",
"[  . . . .O.L 3 x k.P.P.h.J T J <.{.5X-X-X|.g.o.R <.w.G.j.P.R.3XiXaX8X7X9X8XiXiXiXXX! 6 S R ( H.^.7X9X-X~.q.o.q.g.^.I.r.w.q.@.*.",
" .' '  . .O.@.x 3 Z V.{.~.g.3.E <.{.4X7XwXeXZ.w.g.g.N.g.V.~.4XdXbXvXxXdXrX9XeXrXdXbXrXa.<.5.h.U.eXdX8X4X3Xa.o.<.B.=X_.t.w.0.#.@.",
"K [ ' ]  .c ~ x y ! N.P.^.g.1.1.u.~.-X4X,X,X^.P.!.(.P.Z.!.%XuXvXvXnXnXxXdXdXuXdXdXuXwXqX*X^.P.|.yXrX8X8X4Xh.>.g.P._. XB.0.0.@.O.",
"K L [ [ [ z G @.~ g.g.h.N.h.w.w.h.I.7XyXdX,X|.!.>X-X:X(.(.:XxXvXvXvXvXcXdXxXxXxXdXdXrX,XN.p.P.|.sXcXyX9XXXG.g.w.G._. XH.:.*.@.$.",
"L L ~ [ z q  .~ o.P.l.5.h.P.K.^._.-X7XdXgXwXP.Z.:XwXrX,X,XdXxXvXvXcXxXbXnXxXnXnXnXdXrXdX.Xg.! ..'.iXdX9X.XP.Z.V.I. X~.g.#.-.@...",
"[ ~ [ F z L G x u.U.K.j.U.U.l.Y._..X8XgXdX>X{.F.*XeX9XuXuXxXxXdXxXbXvXcXxXxXxXxXwXdX,X!.Z.1.J v +./.>X>X-XXXI.U.I.{.P.<.+.*.+...",
"[ [ [ c h K E ! V.P.h.l.P.L.K.[.{.[.3XrXrX,X|.{.(.>X7XwXtXdX2X2XxXxXxXbXxXdX>X>X^./.|.y.-.@.v g z v v | L H.{..XXXXXH.0.9.8.%...",
"[ ~ L q q K #.R Q u.d.k.P.H.j.G.E.Y.R.3X9XgXrXrX:X>X(.>X2X>X>X,X>X>XxXxXxX,X>X&X-.M.F.F.-.-.g 1 1 1 1 1 & 3 !..XXXXXG.#.8.8.} { ",
"J x 3 % g M.p.>.o.w.3.k.U.P.h.P.K.I.E.`.3X9X9X,X>X$X/.&X<X>XF.M.F.>XtXxXdX/.F.F.-. .%.&. .| & o o & $ $ X . j.OX[.}.H.o.:.+.X.{ ",
"x 3 - z p.~.;.;.o.Q Q f.j.2._.{._.K.f.J.{.XX9X,X&X|.&X2XuX2XF.-.C.F.&X&XF.F./.F.-.%.g g g g & o .   . .     Y.9X[.[.P...+.:.} { ",
"3 h q +.~.B.:.;.W C 1.u.3.g.}.{. X_.Y.E.Y.K.[.XX,X,X2X2XdXxX!.b.-.M.D.D.-.-.F.-.-.&. .v g 3 - o . . . .   B 9X.X[.P.G.....+.{ ' ",
"B z q e.P.N.1.;.C B 7.7.>.h.G.P._.K.z.x.i.k.L.{.-X-X*X:XwX*Xg.Z.M.C.M.F.F.M.C.A.=.] v 3 g 1 1 $ . . .   + _..X|.[.j.>.{ #.#.{ I ",
"$.z k N.%XV.w.3.Z V 1.>.( ;.1.L.I.R.T.T.E.K.U.E.}.|.(.~.:XN.q.M.M.M.M.M.b.*.-.[ ] ] [ v g 1 1 $ . .   . R 9X}.H.f.Q n @.+.+.{ { ",
"K v O.~.'.H.<.V.2.Z U ( R N Q j.K.L.T.oX_.J.G.f.K.{.U.V.^.B.n k @.@.*.%.*.@.] | ] | v | v 3 1 o . . . n 7X{.I.f.2.W ..+...+.{ } ",
"{ z #.P.^.h.2.h.h.R 7 S / R T ;.h.z.}.oXR.J.z.j.k.z.R.P.h.j.I = $ = 3 q h G [ [ ] | v v 3 1 O X .   % Z.XXz.5./ ;.I :.+.O.} I } ",
"{ 9 G g.g.l.w.d.2.Z a a C ,./ P ^ U 3.J.E.T.E.E.c.z.J.T.H.i.1.U 9 = X . . % 8 0 3 1 3 - % o .     # ;.I.d.k./ / X.I :.8.O.I I H ",
"+.2 y -.g.w.g.j.3.a M i t N ( R V s s ,.E.[.OX+XY.L.f.x.J.z.z.5.T V 5 > * o O O $ .     .   + ; U T.E.4.^ 4.( ,.1.I } *.+.K U H ",
"l & 3 J o.w.h.f.<.C w 7 a t s D ^ ^ D R 4.s.L.E.L.T.J.G.1.j.Y.I.I.g.:.:.3.( S U S r 8 < w U j.}.6XL._ ) ) Y T f.>.H } =.} I H H ",
"3 O , k o.g.j.j.3./ V a Z ^ N N ,.^ ) 4.^ S ) Y.}.+XE.J.j.i.z.U.U.}. X9X8X.X8X0X3X`.5X3X6XfX7XL.s.6.4.) _ Y Q d.>.' =.9.] { [ [ ",
"9 % ; n }.eX8Xi.( N S / m m s t D ` ) 6.) ^ 4.E.T.T.J.x.T.z.c.R.L.[.R. X3XOXOX.X5XT.`.5X3X3XOXY.6.6.s.7.N U J.`.:.' %. .] ' ' K ",
"q % 4 u 5X].pX3XJ.5XT.a.R.3Xi.x.6.E.) ) ^ ` 4.L.0XsX`.0XhX`.0XjX.X[.6XpXfX0XhXjX5X0XjXsXpXgXfXoX6X@XE.J.N ( T.`.w.I ] O.] ] [ K ",
"q o ; 4 %X5XpXiXsX2.sXH.5XoX`.pXmX4.A 4.0X0XJ.x.oXzXpX0XpXpXhX5XhXE.OXmX0XpXgXgXpXpXpXjXpXhXmX`.+X+X`.jXoX`.T.L.<.' ' %. . .K K ",
"2 X ; 4 5X5XaXsXiX].8XT._.T.`.5X6X`.A ^ ) ) v.v.0XhX0X8XhX8XhXpXjX`.0XmXpX0XjXjXpXmXhXhXjXmXmXz.J.T.T.0XpX5XI.G.W n K O. . .[ L ",
"> X > 7 s a.I.I.].eXT.`.i.1.6.( ^ x.Z Y f D ) E.5X0X].5X0X`.0XpX+X+X0XOX6X+XpX@X@XmX6XhXpX0X+Xx.J.x.i.T.z.G.T.L.I H { ]  .] K G ",
"O X < s * # U _._.I.x.7.1.7.( D v.^ A ) ` D v.c.J.L.].5X5XOX`.E.+X+X[.+X}.+X+XE.E.+XT.T.5X`.x.x.` z.,.S 6.z.T.L.I H { ] ' K L G ",
"X @ a A < = t j._._.G.a.i.x.d Y x.v.) ) Y Y ) s.I.J.`.5X5XoX+X+X+XOXOXOXXXOXOXR.+X+X`.E.E.x.z.i./ j.6.c.T.T.L.i.U H } ] ] { L G ",
"X @ D A < 6 > R j.T.T.T.L.i.s ( f.6.5.f.` 7.^ 4.k.L.oXoXoXoXOX+XOXOXOX5XOX3X6X}.+X@X+XJ.x.7.6.x.f.6.` L.}.T.i.I F L [ ] [ [ L G "
};
