/* XPM */
static char *_0103_f79f74e088708a8d67f61b3f3743726fda8737b88ab7e103cf0f833c7922c81a[] = {
/* columns rows colors chars-per-pixel */
"64 64 244 2 ",
"   c #0B150D",
".  c #0A180C",
"X  c #14140B",
"o  c #1B1B0D",
"O  c #17150A",
"+  c #0E1A11",
"@  c #0B1412",
"#  c #131C14",
"$  c #1B1C13",
"%  c #151E18",
"&  c #191F19",
"*  c #060D04",
"=  c #231D0C",
"-  c #2D1E0D",
";  c #231E12",
":  c #281E12",
">  c #301F0F",
",  c #162117",
"<  c #1B2215",
"1  c #172119",
"2  c #1B241C",
"3  c #1E291D",
"4  c #2B230E",
"5  c #232313",
"6  c #2C2A15",
"7  c #22261B",
"8  c #222B1E",
"9  c #2B2C1B",
"0  c #2B2414",
"q  c #322C1A",
"w  c #3A2C18",
"e  c #3A331D",
"r  c #35321E",
"t  c #2C341F",
"y  c #1E2721",
"u  c #1E2921",
"i  c #1E2E28",
"p  c #1F332D",
"a  c #222B23",
"s  c #2B2D21",
"d  c #222A24",
"f  c #312E24",
"g  c #253125",
"h  c #2C3424",
"j  c #2E3924",
"k  c #24332A",
"l  c #2A352A",
"z  c #2D392C",
"x  c #27392E",
"c  c #353325",
"v  c #3B3523",
"b  c #323A25",
"n  c #3C3A24",
"m  c #323C2D",
"M  c #3B372A",
"N  c #263A33",
"B  c #2C3C33",
"V  c #2A3C37",
"C  c #333E32",
"Z  c #373C33",
"A  c #433A2C",
"S  c #473927",
"D  c #573E29",
"F  c #463D32",
"G  c #4B3C33",
"H  c #41331F",
"J  c #33412E",
"K  c #3A412D",
"L  c #2E4139",
"P  c #354233",
"I  c #3B4435",
"U  c #3C4937",
"Y  c #3B453A",
"T  c #3D4A3B",
"R  c #34423B",
"E  c #3F513F",
"W  c #4D432B",
"Q  c #484129",
"!  c #53432C",
"~  c #58472D",
"^  c #434534",
"/  c #4B4134",
"(  c #4B4A35",
")  c #414639",
"_  c #434C3C",
"`  c #4A4D3C",
"'  c #4A4739",
"]  c #5D4D33",
"[  c #52453A",
"{  c #534B3D",
"}  c #564835",
"|  c #44513E",
" . c #4C523E",
".. c #52523D",
"X. c #5D5138",
"o. c #5C512C",
"O. c #634D35",
"+. c #664C39",
"@. c #635336",
"#. c #65533B",
"$. c #6C553B",
"%. c #6B593D",
"&. c #675739",
"*. c #735A3D",
"=. c #74573C",
"-. c #62472D",
";. c #3E4D41",
":. c #394943",
">. c #434C41",
",. c #4A4E41",
"<. c #474D4A",
"1. c #584E41",
"2. c #455243",
"3. c #4A5444",
"4. c #465846",
"5. c #4B5946",
"6. c #465549",
"7. c #4A5549",
"8. c #4C5A4B",
"9. c #47594B",
"0. c #535443",
"q. c #5C5445",
"w. c #525B46",
"e. c #5C5A45",
"r. c #525D4C",
"t. c #5B5C4B",
"y. c #585649",
"u. c #4E5B52",
"i. c #545E53",
"p. c #585F55",
"a. c #6B5C43",
"s. c #645E4C",
"d. c #6A5C4C",
"f. c #635644",
"g. c #735D42",
"h. c #795C46",
"j. c #665F51",
"k. c #7B5E54",
"l. c #54614B",
"z. c #5A644D",
"x. c #58644B",
"c. c #536252",
"v. c #5A6452",
"b. c #5D6A54",
"n. c #5A6658",
"m. c #566954",
"M. c #64624E",
"N. c #69634D",
"B. c #726243",
"V. c #7B6345",
"C. c #7C694C",
"Z. c #786549",
"A. c #646453",
"S. c #6C6453",
"D. c #626C55",
"F. c #6C6854",
"G. c #626D5A",
"H. c #6D6B5A",
"J. c #726454",
"K. c #736A55",
"L. c #746C5A",
"P. c #796E5C",
"I. c #786956",
"U. c #65725C",
"Y. c #69745C",
"T. c #68785E",
"R. c #75725D",
"E. c #7A725D",
"W. c #7F765B",
"Q. c #5D6A65",
"!. c #636A64",
"~. c #676E69",
"^. c #6B7662",
"/. c #6D7963",
"(. c #69736B",
"). c #7C7464",
"_. c #7C7B6B",
"`. c #727966",
"'. c #757C76",
"]. c #72746A",
"[. c #845E43",
"{. c #85674B",
"}. c #87704F",
"|. c #876D54",
" X c #857153",
".X c #8B7254",
"XX c #8B765A",
"oX c #8B7A5C",
"OX c #86755B",
"+X c #937B5C",
"@X c #947558",
"#X c #916F54",
"$X c #847A68",
"%X c #967D60",
"&X c #85766A",
"*X c #778267",
"=X c #7C837D",
"-X c #798778",
";X c #96875F",
":X c #84825B",
">X c #8A8365",
",X c #948363",
"<X c #9B8464",
"1X c #9C8C6B",
"2X c #988866",
"3X c #868473",
"4X c #9F906E",
"5X c #A28D6C",
"6X c #A48667",
"7X c #A8906E",
"8X c #A89777",
"9X c #B29776",
"0X c #B0A17D",
"qX c #7E8783",
"wX c #848B86",
"eX c #868B86",
"rX c #8C928D",
"tX c #8E9791",
"yX c #969B96",
"uX c #93978C",
"iX c #9DA29D",
"pX c #A9A999",
"aX c #A6AAA6",
"sX c #A7ACA8",
"dX c #ACB1AD",
"fX c #ADB4B1",
"gX c #B5B8B5",
"hX c #BBBEBB",
"jX c #B5B8B6",
"kX c #B0B1AF",
"lX c #BDC1BE",
"zX c #C1C4BD",
"xX c #BDC3C0",
"cX c #C6C8C5",
"vX c #CACDCA",
"bX c #C2C6C3",
"nX c #D7D4CC",
"mX c #D3D5D2",
"MX c #D9DCDA",
"NX c #D0D1CE",
"BX c #E5E6E5",
"VX c #FFFFFF",
"CX c #F0F1ED",
"ZX c #E0E2E0",
/* pixels */
"2.2.| 2.,.,._ T T _ _ T _ _ _ Y U T T T T U U U I T P T T U U U U P P R U U J J J P m C m m m b b j j j b b j t j t j h z h g c ",
"2.2.2.2.2.2.,.2.>.2.>.,._ _ _ _ _ T _ E ;.T _ T T T T U U U T R U P U P P L U P J P P P J m J m m m b b b b b t b t j j z b c z ",
"3.3.2.2.2.,.3.2.3.,.2.2.2.| _ | | _ _ | ) ^ ^ U R T ;.T T T T T T U U U U U T T I Y Y P J P m Z C C J b m b j t b j j j z b z j ",
"5.4.4.3.7.3.3.7.3.2.3.,.,.,.2.2. .( n e 6 9 h 8 $ y U T ;.T T T T T E T T T T T Y I T T I P K P P P J J J z m j b b m m m z m m ",
"8.8.8.7.7.5.4.4.4.6.7.7.3.2.3.| ( e 6 o O O o X $ $ < 8 s Y T _ T T _ >.T P J J C m m U Y _ Y I K P Z m m C m j m b m m m m m z ",
"8.8.8.8.w.8.5.8.8.8.8.9.4.4.2.( e o X X X O X X o $ X X X 3 I ;.| 2._ I U R P m z B P P Y ) >._ Y I Y P P C m b J m m m m C C C ",
"r.r.r.8.8.5.8.u.8.8.8.8.9.3.^ n 6 < = = 0 > = : 5 = o o 5 7 7 C 4.E I U U P C C m B B C P Y Y Y _ Y Y I I P Z m J K P J P P P m ",
"i.i.r.r.l.c.c.8.8.u.8.8.c.4.b 4 6 D -.=.[.[.[.g.@.] ~ W n n 9 n _ P R ) Y R I Z m m z C C C C m Y Y Y Y I I P Z P I P P I P P P ",
"c.p.r.c.c.c.i.c.c.c.l.r.8.| 5 e h.#X#X%X6X9X7X7X<X+X@X}.&.Q m n j I Y ) _ ) Y I Z m z C Z m m Z P T T T Y Y Y C P I U P Y P P P ",
"v.v.c.n.c.c.c.c.c.c.p.c.c.U e h.@X#X%X9X9X9X8X8X8X1X,X+X X} n b 9 m >.>.) ) ) I Z C m m m m m m R :.;.:.T T _ R U U T T U U U T ",
"c.v.c.v.c.c.p.i.i.r.r.l.r.t ~ {.@XXX1X4X1X1X,X%X;X%X,X>XXXC...c 7 9 Y ) ) Y I I ) I Z Z m z C C P T 2.;.>._ ) Y T T T T T E T T ",
"b.b.A.b.b.b.b.v.v.v.v.v.` < #.{.|.+X1X1X1X1X2X<X>XOX XXX X Xq.b d d m ) ) Y ^ ^ ^ I I ^ m z C Z R _ ;.2.>._ >.Y E T ;.>.T U E T ",
"G.G.A.D.A.b.G.D.A.b.v.G.^ < $.|.|.+X6X8X8X7X8X0X7X2X:X X X X{ 8 7 5 s U I I ) I I Z Z n m m C C Z Y >.>.>._ >.Y >.;.2.;.;.;.;.;.",
"`./.^.^.^.^.^.!.U.U.U.^._ 5 #..X+X+X1X9X8X7XpX8X8X1X2X>X>XZ.Q 8 7 ; s ) ) ) ) ) ^ ) I Z C m C Z I Y ;.;._ T Y _ 6.2.6.6.6.;.6.4.",
"l.v.c.n.b.D.D.G.G.!.G.^.2.= +.@X%X<X1X7X7X1X2X1X1X1X5X1X>XB.n 7 < $ s ) ) _ _ ) ` ,.' ) Y Y Z Y T _ 8.8.8.8.6.2.6.7.6.6.6.6.6.2.",
"3 8 8 a g g h z z z m P h o $.}.V.o.Q ! $.}.V.o.H S } B.oXB.Q 9 5 $ Z >.` ` ,.0.y.y.0.` ` ) Y Y >.>.8.r.8.u.8.2.8.8.8.4.7.4.6.6.",
"+ # # + + # # # % % # % $ ; =.D w - O = w h.S = O O - w D #.&.( f ; d f Z Z F [ { 1.1.q.,.` ) ) ) _ 8.c.i.c.u.7.u.8.8.8.u.9.9.8.",
"    @ @         @ @ @     9 =.w : : 7 : H %XD O ; $ $ : 4 ( K.N.F M f f M A M Z F F { s.q...) ` ^ _ 8.c.i.c.c.7.u.u.l.8.5.8.8.8.",
"g a 8 3 2 2 , # # @ + +   v =.-.D +.f.a.V.9X}.D { [ v q r } K.J.[ F S H A A A A F } q.S.s.t.`  .) ) A.b.c.c.c.8.u.c.c.8.c.8.8.u.",
"/.^.U.U.D.b.v.l.r.i.8.4./ W {.#X%X&X$X+X%X9X.X{.|.Z.f.a.C.Z.W.J.1.d.f.G G G G G G { d.J.H.s.3.3._ 1.j.H.b.n.c.r.c.c.8.c.c.c.8.8.",
"^.`././././.`././.^.^.^.} D {.+X;X2X5X<X<X9X@X{.<X,X;X,X;XXXP.L.d.k.1.f.[ G [ [ [ f.d.P.L.M.0.| ` M.P.N.z.b.b.i.c.c.9.c.c.c.c.8.",
"(././././././.(.^.^.U.^.f.-.[.#X+X6X7X+X5X0XXXV.+X5X<XoXXXC.J.P.j.k.k.|.k.[ [ [ { f.d.P.E.K.t.3.3.L.J.K.3.8.v.n.c.c.m.c.8.c.l.8.",
"m.m.m.m.G.b.G.G.G.G.G.G.R.g.*.{.+X7X7X.XZ.}.g.B.+X8X1X+XC.@.s.).J.k.&X&X&Xd.[ [ [ d.J.P.&XE.N.0.s.J.X.S.0.| w.w.m.c.u.c.c.c.c.c.",
"5.5.5.8.9.4.4.8.4.4.4.2.M.h.=.{.@X6X5X~ - w O - {.<X<X|.%.D X.R.&X&X|.k.&X&Xf.[ [ f.j.).).W.R.e.e.K.d.J.| _  .3.v.m.m.m.9.c.u.c.",
"T.T.T.U.U.U.U.U.U.b.b.m.M.*.*.{.@X<X5X|.~ 0 0 S XX+X XV.@.! W L.&X|.P.).).).J.1.G [ j.P.).).E.M.s.L.K.M.U T 3.,.r.i.c.n.c.u.c.c.",
"U.U.U.T.Y.Y.U.U.U.U.U.U.D.M.*.V..X<X+X{.+.S } %.XX%XZ.*.O.! S A.P.&X_.).).&X).[ f 1.d.P.P.).W.F.M.L.S.3.U ,.) ,.7.w.l.c.c.c.c.c.",
"U.G.G.G.U.D.D.D.D.G.b.G.b.x.&.V.}.{.*.h.[.{.h.-.~ @.g.#.~ W e 0.j.P.).).).&XL.M F f.S.P.P.E.E.F...K...K T _ 2.2. .3.2.r.c.c.9.m.",
"b.b.b.b.D.D.D.b.b.b.b.b.b.z.} B.}.@.W D D +.D S v w ~ O.W W q ^ ^.J.J.).$X).H.F G y.t.s.).P.P.M...M.{ P T ) _ |  .| ` | c.c.c.c.",
"x.x.n.z.z.z.x.x.x.x.x.x.x.x.( @.}.&.V.V.=.O.+.a.g.&.o.~ Q e 5 K Y.F.y.y.).).S.M f F { S.R.E.L.M...e.0.| T _ | _ | | _ _ 4.c.c.c.",
"x.x.x.x.l.x.l.l.l.l...l.l.w.5.o.*.V.}.o.- O = 4 Q $.] Q v 6 ; ( R.A.A.A.S.P.d.A v F f.J.E.E.K.M...0. .^ T _ _ | | | U Y 4.l.n.c.",
"x.x.x.x.x.l.l.w.w.w.l.x.5. .l.Q ! o.*.*.o.] ] ] &.o.! S 6 = q ` T.3X_.).).L.d.[ G 1.d.L.R.R.K.D..... .I T _ _ | 3. .U U | 8.c.n.",
"b.x.x.x.x.x.l.l.l.l.l...l.5.l. .e Q B.;X2X<X<X;X.X&.w 4 o 5 M ( D.3X3X_.$X).P.{ G 1.J.E.).W.K.M... .^ K ` _ 2.| 2. .T T _ 2.8.n.",
"z.D.z.z.z.x.x.x.x.x.x.w.w.w.x.e.W 6 ! B.C.Z.Z.h.! e 5 O o r S _ l.3X3X)._._.).{ H 1.j.&X&XR.K.M. .` ) I _ | | | |  .U U T E | m.",
"D.D.D.z.z.z.x.z.x.x.x.x.w.x.w.e.&.e o r S q q 9 ; o X O 6 n n ^ | T.3XH._.3XP.[ A [ 1.J.).L.F.s. ...) U U | | T 2.| U U T 2.2.5.",
"D.D.D.z.b.M.z.z.x.x.x.x.w.w.l.e.&.o.6 o o # O X + X O 5 r v S 1.| l.3XM._.$XL.[ c F { y.s.S.A.e.`  .` ^ _ T | | | | U U _ 2.6.;.",
"U.*XY.U.U.D.D.D.x.M.x.x.x.x.l.e.a.&.! q $ X X X O O 5 q n / t.i.T | U.F.R._.).M s 0.t.1.S.s.s. ._  .| ^ | | | | |  .| T >.| E 6.",
"*XT.T.T.T.Y.Y.D.D.D.D.x.z.v.z.e.%.%.X.W r 5 O O o 5 6 n ' M.v.3.Y ;.8.H.R.H.R.t.,.j.y.y.J.M.e.` | ` _ U | 2.| | | | | T _ | 2.;.",
"*XT.T.T.T.Y.Y.H.T.D.D.T.b.z.N.B.@.a.&.] Q q 6 = ; 0 v ) i.z.t.` ( ` _ z.(.).S.s.[ 1.1.j.S.s.0.| | ` T T 2. .| |  .w. .T | | E ;.",
"*X*X*X*X/.T.T.Y.T.D.T.x.I Z. XB.X.%.%.@.( r 9 0 5 q ^ w.i.r.w._ ..0.{ | 8.]._.[ M ,.t.S.S.t.` ( 2.` _ U | 3.5.| 4.5.8.| 2.2.T ;.",
";X;X:X*X;X*XR.T.T.*X .o ( 4XoXZ.@.O.%.&.} A M q 0 v ` 8.0.z.e.` ..0.0.0.' y.j.,.M ^ 1.S.A.e.` ` ` 2.2._ | 3. .5.| 5.w. .4.2.E 6.",
";X;X;X;X;X;X>X/.w.J +   ( 4X>XZ.@.] #.f.~ W A v e ^ 0.3.y.A.e.3.w.0.e.t.s.{ ) G G F t.H.M...( ,.| 3.3.| | 3.5. . .5.8.w.2.4.2.4.",
"*X*X*X*X*XD.5.z 2 # < # 9 >X2X}.B.#.&.f.! D S e S q.r.y.p.t.t.0.0.e.t.D.3.7 f ,.G F G t.t.` |  .3.5.3.| | 3.5.3.4.5.8.l.4.4.4.4.",
"*X*X*XY.P 3 , < 3 # & 1 # ..7X>XW.C.Z.B.+.D h.$X$XH.b.x.A.D.A.e.e.M.A.| d 7 $ M Z c M c Z y.2.,.0.5.3.3.| | 3.w.5.5.3.5.4.6.4.9.",
"*XY.w.9 , , 2 2 < # & & 2 # ^ oX,X,X XC.{.-.nXmXpXF.w.x.A.H.D.0. .` m # # & * * s s d 1 # 8 I 3.r.3.3.3.| | | w.5.5.3.4.8.9.9.8.",
"| 8 , & , & 1 2 < # 1 7 2 1 # 5 ( E.,X,X<X{.nX$XB.pXlXuXpX`.yXeXi.'.R yXiXB '.yXa 8 3 1 1 # 3 P 2.5.4.3.3.2.| 7.8.5.7.w.8.7.5.9.",
"2 2 2 & # 2 7 3 # < 8 a d 1 y & + $ s / d.h.nXCXiXmXvXlXfXtXfXhXqXlXc.vXvX'.eXNX'.# g a 3 y u g k 3.2.2.3.4.2.2.w.w.w.3.8.4.6.5.",
"2 2 1 $ < 7 a 3 1 a 8 8 a a d & 7 1 % # #   lXv.y fXQ.sX(.CXwXsXZXlXc.yXyX~.qXmX=X+ l g d k l l 8 P 7.| 5.5.| 2.3.e.r.3.r.5.5.5.",
"& & & & 1 8 g 3 2 8 3 a 8 a d d d 2 2 7 2 # vX'.:.xXsXxX:.VXQ.hXwXhXqXsXfXyXbXkXtXP l x B z z z g a _ 7.3.3.| 2.5.5.e.3.8.8.4.5.",
"1 2 & $ 2 h h 3 3 3 8 g 3 y a a y d d 1 y & rXvXtXhXNXqXk mX>.eXn.qXNXgXcXgXtXsX'.fXB L L B P z l 3 a 3.7.5.4.2.3.5.8.3.z.w.8.8.",
"2 & # $ 3 z 8 3 3 g 3 g y 2 3 y y y 1 y 2 y , + 1 NX;.i yXcXk d u u (.2 B !.# + a T B R C J J P g 8 2 l 5.5.3.3.2.r.e.3.t.t.5.8.",
"2 < % 2 a z 3 3 3 3 8 u u y y 3 y y & y 2 y y d N (.u.;.].8.g B k u 1 g 7 & d a a B C B B P P J g d d < Y 8.3.3.2.r.5.w.y.w.8.u.",
"# + % 2 h 8 2 3 u a y d a d a i y y d & y 2 3 y p p :.9.g a B y i Y y d a d y 3 u z B B J P B C g 3 y & g 8.3.r.0.8.8.5.x.b.l.8.",
"& & < 8 g 3 y y d d &   2 1   % & @ % % % y + & k N :.V a V 2 C dXeX+ i # # a + + N B B g g m g # 3 @ $ # Z 3.r.r.w.4.5.x.b.c.8.",
"& % 2 8 7 2 y 3 d 1 Y wXk >.qXp.d qX>.R <.& p.d i Q.:.~.(.R p.gXvXT , 2 ].!.% !.(.k z Y =X=XC !.(.g u.>.<.p.r.r.5.5.4.5.r.D.z.4.",
"& # 2 8 2 y y i d 1 hXMX'.eXMXhX~.lXjXyXmXZ VXB y xXqXxXxXwXhXhXvXzX* 8.gXvX~.aXmX(., Q.MXmX'.cXNXrXaX'.aXhXr.0.w.7.5.5.w.D.l.2.",
"# # 2 5 1 d y d y i cXa   rXwXsX<.iXvXrXBXhXBXZ 1 xXCXQ.].MXrXsX'.gX1 1 R mX>.'.mX=X. Q.iXaXuXcXhXrXcXmXeXhXcX`. .r.8.4.r.D.8.2.",
"+ # u 2 y y u u 3 3 vX~.;.iXqXaXsXgXgXyXhXjXxXZ y xXxXtX;.VX!.gXtXzX+ >.!.hXiXhXgXwX* '.iXsXrXcX'.].hXiXiXdXdXlXI i.8.,.c.c.6.4.",
"+ # 2 2 2 u y 2 y # wXZXyXZXgXBXyXhXsXeX'.2 aXC p sXQ.fXN NXT '.CX'.% ;.vXgX7.hXbX~., NXcXZXiXsXvXG.rX~.eXsXvX_.| 8.7.7.c.6.6.4.",
"+ , 2 2 2 2 y 2 3 y 1 2 >.'.  '.<.1 y y & & 3 3 p L V p (.vXk u l 2 d 2 3 d $ y 1 3 k tXk 8.'.# d % 3 1 8 g 3 x r.8.3.u.8.2.6.6.",
"+ + 1 1 2 2 2 u y 2 y y 1 & 1 # 1 y 1 1 2 2 1 d V L L N qX(.g x g k d y y y y & & 1 i 2 a 1 d y y y 1 < 3 a 2 z 8.3.6.8.7.6.4.6.",
"@ % 1 2 1 2 2 y y y y y y y 1 y 3 1 2 y 2 y 1 d L L N V i x L x k g 8 2 y y 3 1 # 1 d g a u y 3 d 2 , 3 3 i 3 g 7.3.<.7.7.7.7.7.",
"  + , , 2 y 2 y 2 3 2 y y y 2 y 1 y 2 1 & 1 y l L :.N N J L z z l d 3 3 3 3 y 3 1 % a d y y 3 u y 1 2 8 i u 3 3 T 3.2.7.<.7.7.7.",
"  # 1 < 2 y 2 y 1 3 2 2 2 y 2 2 3 1 2 1 1 y y N :.V N N N N V l l g 3 3 3 y y 2 1 , 3 y 3 3 2 3 2 1 2 8 u 2 2 2 C 7.3.7.<.7.7.7.",
". % 2 1 1 2 , 2 2 y 1 2 1 1 2 1 2 y 1 2 # & y V V N N p k N V B x l a 3 y d 2 1 1 1 3 3 2 2 2 2 1 3 y 8 y 2 y 1 l 8.3.2.<.7.7.7."
};
