/* XPM */
static char *bc55ac2674654346a4408dd38637939fW7uC5JktQIeJdKbv[] = {
/* columns rows colors chars-per-pixel */
"128 128 26 1 ",
"  c black",
". c #222034",
"X c #323C39",
"o c #45283C",
"O c #663931",
"+ c #524B24",
"@ c #4B692F",
"# c #595652",
"$ c #696A6A",
"% c #AC3232",
"& c #8F563B",
"* c #8A6F30",
"= c #DF7126",
"- c #D95763",
"; c #8F974A",
": c #D9A066",
"> c #99E550",
", c #306082",
"< c blue",
"1 c #847E87",
"2 c #D77BBA",
"3 c #5FCDE4",
"4 c #EEC39A",
"5 c #B9C5CB",
"6 c #CBDBFC",
"7 c white",
/* pixels */
"<<<<<<<<<<<<<<<<<<<<<<<<<<<<<<<<<<<<<<<<<<<<<<<<<<<<<<<<<<<<<<<<<<<<<<<<<<<<<<<<<<<<<<<<<<<<<<<<<<<<<<<<<<<<<<<<<<<<<<<<<<<<<<<<",
"<<<<<<<<<<<<<<<<<<<<<<<<<<<<<<<<<<<<<<<<<<<<<<<<<<<<<<<<<<<<<<<<<<<<<<<<<<<<<<<<<<<<<<<<<<<<<<<<<<<<<<<<<<<<<<<<<<<<<<<<<<<<<<<<",
"<<<<<<<<<<<<<<<<<<<<<<<<<<<<<<<<<<<<<<<<<<<<<<<<<<<<<<<<<<<%%%%%%%%%%%%%%%%%%%%<<<<<<<<<<<<<<<<<<<<<<<<<<<<<<<<<<<<<<<<<<<<<<<<<",
"<<<<<<<<<<<<<<<<<<<<<<<<<<<<<<<<<<<<<<<<<<<<<<<<<<%%%%%%%%%%%%... oo ....o%%%%%%%%<<<<<<<<<<<<<<<<<<<<<<<<<<<<<<<<<<<<<<<<<<<<<<",
"<<<<<<<<<<<<<<<<<<<<<<<<<<<<<<<<<<<<<<<<<<<<<%%%%%%%%%%%o.oooo%%%%%%%%%%%%oo. %%%%%%<<<<<<<<<<<<<<<<<<<<<<<<<<<<<<<<<<<<<<<<<<<<",
"<<<<<<<<<<<<<<<<<<<<<<<<<<<<<<<<<<<<<<<<<<<%%%%%%%%%%oooo%o%%%%%%%%%%%%%%%%%%%oo.%%%%%<<<<<<<<<<<<<<<<<<<<<<<<<<<<<<<<<<<<<<<<<<",
"<<<<<<<<<<<<<<<<<<<<<<<<<<<<<<<<<<<<<<<<<o..%%%%%ooo.o%o%%o. .  ..  .o%%%%%%%%%%%o.%%%%%<<<<<<<<<<<<<<<<<<<<<<<<<<<<<<<<<<<<<<<<",
"<<<<<<<<<<<<<<<<<<<<<<<<<<<<<<<<<<<<<<  .o. %%%ooo%%%%%% o..oo.oooo.%%%%%%%%%%%%%%%oo%%%%%<<<<<<<<<<<<<<<<<<<<<<<<<<<<<<<<<<<<<<",
"<<<<<<<<<<<<<<<<<<<<<<<<<<<<<<<<<<<  .oo%o.%o.%%%%%%%%%%%%%%%%%%%%%%%%%%%%%%%%%%%%%%%o%%%%%%<<<<<<<<<<<<<<<<<<<<<<<<<<<<<<<<<<<<",
"<<<<<<<<<<<<<<<<<<<<<<<<<<<<<<<<<   o%%%..%%%%%%%%%%%%o%%%%%%%%%%%%%%%%.......%%%%%%%%%%%%%%%%<<<<<<<<<<<<<<<<<<<<<<<<<<<<<<<<<<",
"<<<<<<<<<<<<<<<<<<<<<<<<<<<<<<<   %%%%oo%%%%%%%%%......................%%%%%%%%%%%%%%%%%%%%%%%%%<<<<<<<<<<<<<<<<<<<<<<<<<<<<<<<<",
"<<<<<<<<<<<<<<<<<<<<<<<<<<<<<<  .%%%%oo%%%%%%%%%%..%%%%%%%%%%%%%%%%%%%%%%%%%%%%%%%%%%%%%%%%%%%%%%%<<<<<<<<<<<<<<<<<<<<<<<<<<<<<<",
"<<<<<<<<<<<<<<<<<<<<<<<<<<<<   %%%%ooo%%%%%%%%%%%%%%%%%%%%%%%%%%%%%%%%%%%%%%%%%%%%%%%%%%%%%%%%%%%%%<<<<<<<<<<<<<<<<<<<<<<<<<<<<<",
"<<<<<<<<<<<<<<<<<<<<<<<<<<    %%%ooo%%%%%%%%%%%%%%%%%%%%2%%%%%%%%%%%%%%%%%%%%2%22222%%%%%%%%o%%%%%%%%<<<<<<<<<<<<<<<<<<<<<<<<<<<",
"<<<<<<<<<<<<<<<<<<<<<<<<<   %%%ooo%%%%%%%%%%%%%%%%%%%%%2%%%%%%%%%%%%%%%%%%%%%.22%2222222%%%%%%%%%%%%%%<<<<<<<<<<<<<<<<<<<<<<<<<<",
"<<<<<<<<<<<<<<<<<<<<<<<<   %%%oo%%%%%%%%%%%%%%%%%%%%%%22%%%%%%%%%%%%%%%%%%%%%oo22222222222%%%%%%%%%%%%%<<<<<<<<<<<<<<<<<<<<<<<<<",
"<<<<<<<<<<<<<<<<<<<<<<   <%%oo%%%%%%%%%%%%%%%%%%%%2%%22o%%%%%%%%%%%%%%%%%%%%%%%%2o.22222%%%%%%%%%%%%%%%%< <<<<<<<<<<<<<<<<<<<<<<",
"<<<<<<<<<<<<<<<<<<<<<   <%%%o%%%%%%%%%%%%%%%%%%%%%2222o%%%%%%%%%%%%%%%%%%%%%%%%%%%oo .%%%%%%%%%%%%%%%%%%%< <<<<<<<<<<<<<<<<<<<<<",
"<<<<<<<<<<<<<<<<<<<<  <<%%%%%%%%%%%%%%%%%%%%%%%%222%2oo%%%%%%%%%%%%%%%%%%%%%%%%%%%%%%ooo%%%%%%%%%%%%%%%%%% <<<<<<<<<<<<<<<<<<<<<",
"<<<<<<<<<<<<<<<<<<<  <%%%%%%%%%%%%%%%%%%%%%%%%%%2222o.%%%%%%%%%%%%%%%%%%%%%%%%%%%%%%%%%%%%%%%%%%%%%%%%%%%%% <<<<<<<<<<<<<<<<<<<<",
"<<<<<<<<<<<<<<<<<   <%%%%%%%%%%%%%%%%%%%%%%%%%2222%.o%%%%%%%%%%%%%%%%%%%%%%%%%%%%%%%%%%%%%%%%%%%%%%%%%%%%%%o<<<<<<<<<<<<<<<<<<<<",
"<<<<<<<<<<<<<<<<<  <%%%%%%%%%%%%%%%%%%%%%%%%2222%ooo%%%%%%%%%%%%%%%%%%%%%%%%%%%%%%%%%%%%%%%%%%%%%%%%%%%%%%%%%<<<<<<<<<<<<<<<<<<<",
"<<<<<<<<<<<<<<<<  <%%%%%%%%%%%%%%%%%%%%%%%%%22%o.o%%%%%%%%%%%%%%%%%%%%%%%%%%%%%%%%%%%%%%%%%%%%%%%%%%%%%%%%%%%<<<<<<<<<<<<<<<<<<<",
"<<<<<<<<<<<<<<<  <%%%%%%%%%%%%%%%%%%%%%%%%%2o.o%%%%%%%%%%%%%%%%%%%%%%%%%%%%%%%%%%%%%%%%%%%%%%%%%%%%%o%%%%%%%%%<<<<<<<<<<<<<<<<<<",
"<<<<<<<<<<<<<<  <%%%%%%%%%%%%%%%%%%%%%%%%oo%%%%%%%%%%%%%%%%%%%%%%%%%%%%%%%%%%%%%%%%%%o oooo&*$::11144&o%%%%%%%%<<<<<<<<<<<<<<<<<",
"<<<<<<<<<<<<<<  %%%%%%%%%%%%%%%%%%%%%%%%%%%%%%%%%%%%%%%%%%%%%%%%%%%%%%%%%%%%%%%%%%%%%  %%2677777777777:O%%%%%%%<<<<<<<<<<<<<<<<<",
"<<<<<<<<<<<<<  %%%%%%%%%%%%%%%%%%%%%%%%%%%%%%%%%%%%%%%%%%%%%%%%%%%%%%%%%%%%%%%%%%%o  .*77777777777777774:=%%%%%%<<<<<<<<<<<<<<<<",
"<<<<<<<<<<<<  %%%%%%%%%%%%%%%%ooo%%%%%%%%%%%%o%%%%%%%%%%%%o%%%%%%%%%%%.%.        .  X5777777777777777777764=%%%% <<<<<<<<<<<<<<<",
"<<<<<<<<<<< .%%%%%%%o%%%%%%46;6444::1*&%-%%-%%o %%%%%%%%%% %o%%%%%%%%% %%.  .    ..;77777777777777777777777742..<  <<<<<<<<<<<<<",
"<<<<<<<<<<<.o%%%%%%%%%%%-::6:-OOO*&*$O*44--%%%%o..%%%%%%%  .%%%%%%%%%% %%%.     .$6777777777777777777777777774&  < <<<<<<<<<<<<<",
"<<<<<<<<<%.o%%%%%%o%%%%:6422667764777777777744%%%Oooo%%%   %%%%%%%%%%o %%%%%%oo%6777777777777777777777777777776o  < <<<<<<<<<<<<",
"<<<<<<<<%% %%%%%%o%%%o477777777776777777777777644:#o o   ..oo%%%%%%%%o %%%%%%%%477777777777777777777777777777774.    <<<<<<<<<<<",
"<<<<<<<<oo%%%%%%o%%%2477677777777777777777777777674$oo .%%  %%%%%%%o%o %%%%%%%%7777777777777777767777777777777774.  <<<<<<<<<<<<",
"<<<<<<<<.%%%%%%oo%%-47774777677776777777777777777766;O%%%% .%%%%%%%o%o %%%%%%%=7777777777777777767777777777777774%  < <<<<<<<<<<",
"<<<<<<  o%%%%%oo%o:47744777477767777777777777777767764%%%%  %%%%%%%o%% %%%%%%%:7777777777777777777777777777777777-%   <<<<<<<<<<",
"<<<<<< .%%%%%%o%o%447667767776777777777777777777777776%%%o .%%%%%%%o%% %%%%%%%;7777777777777777777767777777777777:%..< <<<<<<<<<",
"<<<<<  %%%%%%.%%%4477777767677777777777777777777777666-%%  %%%%%%%%%%% %%%%%%&177777777777777777733337777777777774%%%< <<<<<<<<<",
"<<<<  <%%%%%%o%%%4677766777777777777777777777777777464%%o .%%%%%%%%%%% %%%%%%:177777777777777777733,33777777777777%%%<<<<<<<<<<<",
"<<<  <<%%%%%o%%%;777767777777777777777777777777777666:%%  o%%%%%%%%%%%%%%%%%%:177777777777777777733,33777777777777%%%%< <<<<<<<<",
"<<   <<%%%%o%%%2:7776777777733377777777777777777776762%%  %%%%%%%%%%%%%%%%%%%:1777777777777777777333337777777777772%%%% <<<<<<<<",
"<<  <<<%%%%o%%2*66777777777>,.,377777777777777777766:%%  o%%%%%%%%%%%%%%%%%%%-*777777777777777777633377777777777776%%%% <<<<<<<<",
"<  <<<oo%%oo%%:%:57777777777@X,3777777777777777777662%% .%%%%%%%%%%%%%%%%%%%%O#;777777777777777777>3777777777777777%%%%  <<<<<<<",
"<<<<<<oo%%o%%%***57777777777333377777777777777777764%%% o%%%.%%%%%%%%%%%%%%%%%;#77777777777777777777777777777777777-%%%% <<<<<<<",
"<<<<<<o%%%o%%=&O;7777777777733377777777777777777774:%%%  %%o o%%%%%%%%%%%%%%%%*O57777777777777777777777777777777777:%%%% <<<<<<<",
"<<<<<<o%%o%%%2O;5777777777777777777777777777777777:2%%%. %%o .%%%%%%%%%%%%%%%%%1o7777777777777777777777777777777777:%%%%.<<<<<<<",
"<<<<<%.%%o%%%*5;77777777777776777777777777777777744%%%%. %%o  %%%%%%%%%%%%%%%%%:O17777777777777777777777777777777774-%%%%<<<<<<<",
"<<<<<..%oo%%%&147777777777776777777777777777777744%%%%%  %%o  %%%%%%%%%%%%%%%%%%:.#777777777777777777777777777777777:%%%o<<<<<<<",
"<<<<%.o%o%%%o*477777777777777777777777777777777642%%%%%  o%o  o%%%%%%%%%%%%%%%%%%+o7777777777777777777777777777777774%%%% <<<<<<",
"<<<<%.%%%%%%%577777777777777777777777777777777774%%%%%   %%.  .o%%%%%%%%%%%%%%%%%%&o177777777777777777777777777777774%%%%.<<<<<<",
"<<<<%.%o%%%%%77777777777777777777777777777777776-%%%%%   %%.   .%%%%%%%%%%%%%%%%%%%oo&7777777777777777777777777777764%%%%o<<<<<<",
"<<<%. %o%%%%:7777777777777777777777777777777764%%%%%%%  .%o     .%%%%%%%%%%%%%%%%%%%o O577777777777777777777777777764%%%%o<<<<<<",
"<<<%  o%%%%%4767777777777777777777777777777744%%%%%%%%  .%.     .%%%%%%%%%%%%%%%%%%%%ooo7777777777777777777777777776:%%%%%o<<<<<",
"<<<%..o%%%%%6747777777777777777777777777776-%%%%%%%%%o  ooo .   o%%%%%%%%%%%%%%%%%%%%%o1#777777777777777777777777774%%%%%%o<<<<<",
"<<<% .o%%%%%67677777777777777777777777776:%%%%%%%%%%%o  o%% oo  o%%%%%%%%%%%%%%%%%%%%%oo..O+OO$;5777777777777777776:%%%%%%o<<<<<",
"<<<% o%%%%%%74677777777777777777777777:=%%%%%%%%%%%%%o..oo%%%  .%%%%%%%%%%%%%%%%%%%%%%%%=:&*1117777777777777777777:%%%%%%%%<<<<<",
"<<%% o%%%%%%446777777777777777777764:2%%%%%%%%%%%%%%%.oo.%%%%o.%%%%%%%%%%%%%%%%%%%%%%%%%%=:##:6$$;7777777777777774-%%%%%%%% <<<<",
"<<%o o%%%%%%%::77767777777777777622%%%%%%%%%%%%%%%%%%o%%o%%%%%%%%%%%%%%%%%%%%%%%%%%%%%%%%%%2*1777:;;1*57774546664%%%%%%%%ooo <<<",
"<<%. o%%%%%%%224666776777777777:2%%%%%%%%%%%%%%%%%%%%.%o%%%%%%%%%%%%%%%%%%%%%%%%%%%%%%%%%%%%%OO46:475:11*771#*::%%%%%%%%%. % <<<",
"<<%. %%%%%%%%==-=2::76677672:-%%%%%%%%%%%%%%%%%%%%%%oo%%%%%%%%%%%%%%%%%%%%%%%%%%%%%%%%%%%%%%%%%%%--**#&&1::::%%%%%%%%%%%%. . <<<",
"<<% .%%%%%%%%%--%%%%=:2=22:=%%%%%%%%%%%%oooo%%%%%%%oo%%%%%%%%%%%%%%%%%%%%%%%%%%%%%%%%%%%%%%%%%%%%%%%%%%%%%%%%%%%%%%%%%%%%..o <<<",
"<<% o%%%%%%%%%%%%%%-%%-%%-%%%%%%%%%%%%o%%%%%%%%%%%o%%%%%%%%%%%%%%%%%%%%%%%%%%%%%%%%%%%oo%%%%%%%%%%%%%%%%%%%%%%%%%%%%%%%%%.o..<<<",
"<<% %%%%%%%%%%%%%%%%%%%%%%%%%%%%%%%%o%ooo%%%%%%%%oo%%%%%%%%%%%%%%%%%%%%%%%%%%%%%%%%%%%%%o.ooo%%%%%%%%%%%%%%%%%%%%%%%%%%%%.o%o<<<",
"<<. %%%%%%%%%%%%%%%%%%%%%%%%%%oo ...o.%%%%%%%%%%.o%%%%%%%%%%%%%%%%%%%%%%%%%%%%%%%%%%%%%%%%%oo%%%%%%%%%%%%%%%%%%%%%%%%%%%%.o%%<<<",
"<<. %%%%%%%%%%%%%%%%%%%%%o%%ooo.ooo%%%%o%%%%%%%%.%%%%%%%%%%%%%%%%%%%%%%%%%%%%%%%%%%%%%%%%%%%%oo%%%%%%%%%%%%%%%%%%%%%%%%%%.o%%<<<",
"<%. %%%%%%%%%%%%%%%%%%%%%.oo%%%%%%o.oo%%%%%%%%%oo%%%%%%%%%%%%%%%%%%%%%%%%%%%%%%%%%%%%%%%%%%%%%%%%o%%%%%%%%%%%%%%%%%%%%%%%.%%%<<<",
"<% .%%%%%%%%%%%%%%%%%%%%%%%oooooooo%%%%%%%%%%%%%.%%%%%%%%%%%%%%%%%%%%%%. o%%%%%%%%%%%%%%%%%%%%%%%%%%%%%%%%%%%%%%%%%%%%%%%.%%%<<<",
"<% o%%%%%%%%%%%%%%%%%%%%%%%%%%%%%%%%%%%%%%%%%%%%.%%%%%%%o%%%%%%%%%%%%  . ...%%%%%%%%%%%%%%%%%%%%%%%%%%%%%%%%%%%%%%%%%%%%%.%%%<<<",
"<% %%%%%%%%%%%%%%%%%%%%%%%%%%%%%%%%%%%%%%%%%%%%%.%%%%%%%ooo%%%%%%%%%ooooo%%o%%%%%%%%%%%%%%%%%%%%%%%%%%%%%%%%%%%%%%%%%%%%%.%%%<<<",
"<% o%%%%%%%%%%%%%%%%%%%%%%%%%%%%%%%%%%%%%%%%%%%%.o%%%.ooo%%%o%%%%%%%%%%%%%%%%%%%%%%%%%%%%%%%%%%%%%%%%%%%%%%%%%%%%%%%%%%%%.%%%<<<",
"<% %%%%%%%%%%%%%%%%%%%%%%%%%%%%%%%%%%%%%%%%%%%%%..%%o o.%%%%%%%%%%%%%%%%%%%%%%%%%%%%%%%%%%%%%%%%%%%%%%%%%%%%%%%%%%%%%%%%oo%%%<<<",
"<%oo%%%%%%%%%%%%%%%%%%%%%%%%%%%%%%%%%%%%%%%%%%%%%.o%%%%%%%%%%%%%%%%%%%%%%%%%%%%%%%%%%%%%%%%%%%%%%%%%%%%%%%%%%%%%%%%%%%%%.o%%%<<<",
"<%%%%%%%%%%%%%%%%%%%%%%%%%%%%%%%%%%%%%%%%%%%%%%%%%.o%%%%%%%%o     .        o%%%%%%%%%%%%%%%%%%%%%%%%%%%%%%%%%%%%%%%%%%%%.%%%%<<<",
"<%oo%%%%%%%%%%%%%%%%%%%%%%%%%%%%%%%%%%%%%%%%%%%%%%oo%%%%.       .ooo%%%%o. ..o%%%%%%%%%%%%%%%%%%%%%%%%%%%%%%%%%%%%%%%%%%o%%%%<<<",
"<%oo%%%%%%%%%%%%%%%%%%%%%%%%%%%%%%%%%%%%%%%%%%%%%%%%     .o%%%%%%%%%%%%%%%%%%o   %%%%%%%%%%%%%%%%%%%%%%%%%%%%%%%%%%%%%%%o%%%<<<<",
"<%oo%%%%%%%%%%%%%%%%%%%%%%%%%%%%%%%%%%%%%%%%%%%%%%%oo%o%%%%%%%%%%%%%%%%%%%%oo%%  %%%%%%%%%%%%%%%%%%%%%%%%%%%%%%%%%%%%%%%.%%%<<<<",
"<%o.%%%%%%%%%%%%%%%%%%%%%%%%%%%%%%%%%%%%%%%%%%%%%%. %%%%%%%%%%oooo.%%%%%%%%%o... %%%%%%%%%%%%%%%%%%%%%%%%%%%%%%%%%%%%%%%.%%%<<<<",
"%%%o%%%%%%%%%%%%%%%%%%%%%%%%%%%%%%%%%%%%%%%%%%%%%% o%%%%%%%%%%%%%o%%%%%%%%%%oo%%o%%%.%%%%%%%%%%%%%%%%%%%%%%%%%%%%%%%%%%%.%%%<<<<",
"%%%o%%%%%%%%%%%%%%%%%%%%%%%%%%%%%%%%%%%%%%%%%%%%o o%%%%%%%%%%%%%%%%%%%%%%%%%%%%%%%%%o %%%%%%%%%%%%%%%%%%%%%%%%%%%%%%%%%%.%%<<<<<",
"%%%o%%%%%%%%%%%%%%%%%%%%%%%%%%%%%%%%%%%.  .o%%%% .%%%%%%%%%%%%oooooooo%%%%%%%%%%%%%%%. %%%%%%%%%%%%%%%%%%%%%%%%%%%%%%%%%.%%<<<<<",
"<%%o%%%%%%%%%%%%%%%%%%%%%%%%%%%%%%%%  ..o%%%%%% .%%%%%%%%%o%%%2&oo%%-:%%%%o..%%%%%%%%% .%%%oo.%%%%%%%%%%%%%%%%%%%%%%%%%%.%%<<<<<",
"%%%oo%%%%%%%%%%%%%%%%%%%%%%%%%%%%%.   o%%.%%%%  o%%%%%%%%%o%%%:*%%%7777:%%%oo .. .%%%%  %%o   %%%%%%%%%%%%%%%%%%%%%%%%%o.%%<<<<<",
"%%%oo%%%%%%%%%%%%%%%%%%%%%%%%%%%  .o% %%% %%%% .%%%%%%%ooo%6474$o%o77777%o677o.oo.  %%%  %    .%%%%%%%%%%%%%%%%%%%%%%%%..%<<<<<<",
"<%o%oo%%%%%%%%%%%%%%%%%%%%%%%%..o%%%. %%  o%%. %%%%%%%o%. o7775#oo477774o%775O%%%=o   o  %     %%%%%%%%%%%%%%%%%%%%%%%%..%<<<<<<",
"<% o%%%%%%%%%%%%%%%%%%%%  % %  %%%%% %%% %%%% o%%%%%::47O..774:&o%*.  o*%%71#:oo77::%     o %   %%%%%%%%%%%%%%%%%%%%%%%.o<<<<<<<",
"<%  o%%%%%%%%%%%%%%%%%%%%%    %%%%% o%%% %%%. %%%oo 67675o.OOO%%%%oo.  .o.oO;o.67777.%      o   o%%%%%%%%%%%%%%%%%%%%%%.%<<<<<<<",
"<%  .%%%%%%%%%%%%%%%%%%%%% o%%%%%% .%%%o.%%%  %oo66 676+o.o%. .o%%%oooooo.%o%o%77777oo%     .%  ..%%%%%%%%%%%%%%%%%%%%o.%<<<<<<<",
"<<.  %%%%%%%%%%%%%%%%%%%% %%%%%%%o.oo%% %%%% %.o776 6+ .o %%%oo%%%..o%%oo  oo %;Oo+$%%%  .  .%o   %%%%%%%%%%%%%%%%%%%%..<<<<<<<<",
"<<%   %%%%%%%%%%%%%%%%%%%% %%%%%%%%%%%% %%%   1777; 1O.   . %%. .            %%%%%oo%%%%  % ..%  . %%%%%%%%%%%%%%%%%%%.%<<<<<<<<",
"<<<   %%%%%%%%%%%%%%%%%%%     %%%%%o%%% o%%   7777* #o    . .%%.     .        %%...%%%%%o %   o.  oo%%%%%%%%%%%%%%%%%%.<<<<<<<<<",
"<<<<  o%%%%%%%%%%%%%%%%% % %%%%%%%o%%%% o%%   677-o o.o.  o .  o.       .%  .   ooo.o.%%% .. % %..o%%%%%%%%%%%%%%%%%%o.<<<<<<<<<",
"<<<<   %%%%%%%%%%%%%%%%%   %%%%%%%%%%%% o%  oo274   % oo.   o  .         o   o   .... .%%  . %%o %%%%%%%%%%%%%%%%%%%%o <<<<<<<<<",
"<<<<   o%%%%%%%%%%%%%%%%%%%%%%%%%%%%%%% %%  o      o% oo.   o .%            o      ..  .%  o %%%.%%%%%%%%%%%%%%%%%%%%o<<<<<<<<<<",
"<<<<<   %%%%%%%%%%%%%%%%%%%%%%%%%%%%%%% %%  o     %o%.....  o .o.    ..     %   oo...   %  o %%%o%%%%%%%%%%%%%%%%%%%% <<<<<<<<<<",
"<<<<<   %%%%%%%%%%%%%%%%%%%%%%%%%%%%%%% %%  o.oo%oo.%...... . ...    .o  ..  ..  %. .   %. %.o%%o%%%%%%%%%%%%%%%%%%.  <<<<<<<<<<",
"<<<<<<  .%%%%%%%%%%%%%%%%%%%%%%%%%%%%%o %% ...o.%oo.o ....o     ..   .%       .  ...   .%o %ooo%o%%%%%%%%%%%%%%%%%%  <<<<<<<<<<<",
"<<<<<<   %%%%%%%%%%%%%%%%%%%%%%%%%%%%%% %% .o.oo%%..o ....o.    o  %  o      .%   .    .%%%%o o%o%%%%%%%%%%%%%%%%%.  <<<<<<<<<<<",
"<<<<<<    %%%%%%%%%%%%%%%%%%%%%%%%%%%%o %% o. oo%%..o .   ..  ..%  o  .  ..  .%. .      %%%%% .%o%%%%%%%%%%%%%%%%%  <<<<<<<<<<<<",
"<<<<<<<   %%%%%%%%%%%%%%%%%%%%%%%%%%%%o %%.%. ..%%..o.. o.     .%  o  .  .o   %o ..     %%%%% o. %%%%%%%%%%%%%%%%  <<<<<<<<<<<<<",
"<<<<<<<   .%%%%%%%%%%%%%%%%%%%%%%%%%%%o %%.%.   o% .oo. %.o    .%  %  o  .o    % o.  .  %%%%% . o%%%%%%%%%%%%%%%%  <<<<<<<<<<<<<",
"<<<<<<<<   o%%%%%%%%%%%%%%%%%%%%%%%%%%  %%.%.   ..  o.  % o. . .%  %  .   o  .o  ..  o  %%%%%   o%%%%%%%%%%%%%%%  <<<<<<<<<<<<<<",
"<<<<<<<<    %%%%%%%%%%%%%%%%%%%%%%%%%%. %%oo. . o%   o    .  . .%  %  ..  .. .%o  .  o  %%%%%. .o%%%%%%%%%%%%%%.  <<<<<<<<<<<<<<",
"<<<<<<<<    o%%%%%%%%%%%%%%%%%%%%%%%%%. %%%%. o      . .. .  . .o  %  ..   % .%%  .  o .%%%%%o..o%%%%%%%%%%%%%%  <<<<<<<<<<<<<<<",
"<<<<<<<<<    o%%%%%%%%%%%%%%%%%%%%%%%%o %%%%. .o    .. .. o. o        o  ...  %%. .  %.o%%%%%%oo%%%%%%%%%%%%%%%  <<<<<<<<<<<<<<<",
"<<<<<<<<<<    %%%%%%%%%%%%%%%%%%%%%%%%% .%%%  ...%   .    ..    o      o  .%  %%o .. % o&  o%% %%%%%%%%%%%%%%%  <<<<<<<<<<<<<<<<",
"<<<<<<<<<<    o%%%%%%%%%%%%%%%%%%%%%%%%  %o%. oo.% . o       %             %  %%%  %   77o.o%% %%%%%%%%%%%%%%o  <<<<<<<<<<<<<<<<",
"<<<<<<<<<<<    .%%%%%%%%%%%%%%%%%%%%%%% ...%. .%.%                     %   %  %%%  %o%677%%o%%o%%%%%%%%%%%%o   <<<<<<<<<<<<<<<<<",
"<<<<<<<<<<<<  o.%%%%%%%%%%%%%%%%%%%%%%% o  %% o%.%o  %%  %%                %..%%%  %.4774%%o%%.%%%%%%%%%%%o    <<<<<<<<<<<<<<<<<",
"<<<<<<<<<<<<  <%%%%%%%%%%%%%%%%%%%%%%%% o. .%o%%%%%   %            %%o%%o .%%%%%%  o *7:%%%%%%.%%%%%%%%%%. .  < <<<<<<<<<<<<<<<<",
"<<<<<<<<<<<<<  %%%%%%%%%%%%%%%%%%%%%%%%.o..o%%%%%%%o %    %  %% %oo%%%%%%  %%%%. .O.%.6#%%%%%.o%%%%%%%%%o..   < <<<<<<<<<<<<<<<<",
"<<<<<<<<<<<<<<  %%%%%%%%%%%%%%%%%%%%%%%%.%o%%%77626-%  %  %%%oo ooo%%. O7  %%o.oO77o%%%%%%%%%%%%%%%%%%%o.    < <<<<<<<<<<<<<<<<<",
"<<<<<<<<<<<<<<  %%%%%%%%%%%%%%%%%%%%%%%% %.%%%777:;%% %Oo %o57%%%&%%%o267o.%%oo7776o %%%%%%%%%%%%%%%%%%       <<<<<<<<<<<<<<<<<<",
"<<<<<<<<<<<<<<   %%%%%%%%%%%%%%%%%%%%%%%%%%o%%67772%oo#;7:%o7677%1*%%%7771.%%&o764;  %%%%%%%%%%%% %%%%.     <<<<<<<<<<<<<<<<<<<<",
"<<<<<<<<<<<<<<<   oo%%%%%%%%%%%%%%%%%%%%%%%ooo&7776%%=#474 o76775&:%%%7774.%%.#7:.o  %%%%o%%%%%%       .   <<<<<<<<<<<<<<<<<<<<<",
"<<<<<<<<<<<<<<<<   o.%%%%%%%%%%%%%%%%%%%%%%%  %44o6%%%1774oo477771:%o4777&.%%ooo   o%. %%%%%%        .    <<<<<<<<<<<<<<<<<<<<<<",
"<<<<<<<<<<<<<<<<<   . %%%%%%%%%%%%%%%%%%%%%o  .%%%:oooO:4%%o%464776%o:76%%o%%%.   .%%  %%                <<<<<<<<<<<<<<<<<<<<<<<",
"<<<<<<<<<<<<<<<<<<   . .%%%%%%%%%%%%%%%%%%%%%o o%%%%%oo...o%%%%%=74%%%%-%%%.     %%%  %%%%              <<<<<<<<<<<<<<<<<<<<<<<<",
"<<<<<<<<<<<<<<<<<<<   . .%%%%%%%%%%%%%%%%% %%%. %o%%%%%%%o.. .   O  ... ..    .%%%%% o%%%%%%%%        <<<<<<<%<<<<<<<<<<<<<<<<<<",
"<<<<<<<<<<<<<<<<<<<<   o. %%%%%%%%%%%%%%%   %%%o..%%%o%%%%%%%%%%%%o%%.    ..%%%%%%% o%%%%%%%%%%%% %  <<<<<<<<<<<<<<<<<<<<<<<<<<<",
"<<<<<<<<<<<<<<<<<<<<<   .. o%%%%%%%%%%     %    % .%%%%%%%%%%oo. ....oo..%%%%%o%%%oo%%%%%%%%%%%%%% <<<<<<<<<%<<<<<<<<<<<<<<<<<<<",
"<<<<<<<<<<<<<<<<<<<<<<    .  %%%%%%%% %      %%%%%o.o%%%%%%%%%%%%%%%%%%%%%oo%.   .%%%%%%%%%%%%%%o <<<<<<<<<<<<<<<<<<<<<<<<<<<<<<",
"<<<<<<<<<<<<<<<<<<<<<<<<      o%%%% %       %%%%%%%%oo%%%%%%%%%%%%%%%%%%.o.     o%%%%%%%%%%%%%%%<<<<<<<<<<%<<<<<<<<<<<<<<<<<<<<<",
"<<<<<<<<<<<<<<<<<<<<<<<<<       ..        %%%%%%%%%%%%%o.o%%ooooo%%o        .%%%%%%%%%%%%%%%%%%<<<<<<<<<<%<<<<<<<<<<<<<<<<<<<<<<",
"<<<<<<<<<<<<<<<<<<<<<<<<<<<      .     %%%%%%%%%%%%%%%%%oo.o%%ooo.. .. . %%%%%%%%%%%%%%%%%%%%<<<<<<<<<<<<<<<<<<<<<<<<<<<<<<<<<<<",
"<<<<<<<<<<<<<<<<<<<<<<<<<<<<<<<   .o.... .o%%%%%%%%%%%%%%%%%%%%%%%%%%%%%%%%%%%%%%%%%%%%%%%%%<<<  <<<<<<<<<<<<<<<<<<<<<<<<<<<<<<<",
"<<<<<<<<<<<<<<<<<<<<<<<<<<<<<<<<<   o%ooo..... ..o%%%%%%%%%%%%%%%%%%%%%%%%%%%%%%%%%%%%%%%<<<   <<<<<<<<<<<<<<<<<<<<<<<<<<<<<<<<<",
"<<<<<<<<<<<<<<<<<<<<<<<<<<<<<<<<<<    o%%%%%%o.o.oooo%%%%%%%%o...  ....%%%%%%%%%%%%%<<<<<<   <<<<<<<%<<<<<<<<<<<<<<<<<<<<<<<<<<<",
"<<<<<<<<<<<<<<<<<<<<<<<<<<<<<<<<<<<<     <<<<%%%%%%%%%oooooo    ....oooo%%%%%%%%<<<<<<<    <<<<<<<<<<<<<<<<<<<<<<<<<<<<<<<<<<<<<",
"<<<<<<<<<<<<<<<<<<<<<<<<<<<<<<<<<<<<<<<   <<<<<<<<<<.<. <<<<<<<<<<<<<<<<%<<<<<<<<<      <<<<<<<<<<<<<<<<<<<<<<<<<<<<<<<<<<<<<<<<"
};
