/* XPM */
static char *_ff0420042304111e190280667c28903XRkuJPA9LH23RQdb[] = {
/* columns rows colors chars-per-pixel */
"128 128 12 1 ",
"  c black",
". c #222034",
"X c #323C39",
"o c #524B24",
"O c #595652",
"+ c #696A6A",
"@ c #8F974A",
"# c blue",
"$ c #847E87",
"% c #B9C5CB",
"& c #CBDBFC",
"* c white",
/* pixels */
"################################################################################################################################",
"################################################################################################################################",
"################################################################################################################################",
"############################################################         ###########################################################",
"########################################################    @%%%%%%%%    #######################################################",
"######################################################  @%%%%%%%%%%%%%  @  #####################################################",
"####################################################  %%%%%%%%%%%%%%% @****  ###################################################",
"##################################################  @%%%%%%%%%%%%%%  ********  #################################################",
"################################################# %%%%%%%%%%%%%%%% ***********@ ################################################",
"################################################ %%%%%%%%%%%%%%%% ************** ###############################################",
"############################################### %%%%%%%%%%%%%%%% **************** ##############################################",
"############################################## %%%%%%%%%%%%%%%% ****************** #############################################",
"############################################# %%%%%%%%%%%%%%%%@ ******************* ############################################",
"############################################ %%%%%%%%%%%%%%%%% ********************* ###########################################",
"########################################### %%%%%%%%%%%%%%%%% *********************** ##########################################",
"########################################## %%%%%%.  %. $%%%%% ************************ #########################################",
"########################################## %%%%X  O%@.  %%%% ************************* #########################################",
"######################################### %%%%%%*%***X X%%%% ************************** ########################################",
"######################################### %%%%%%%*@. @X%%%% *************************** ########################################",
"######################################## %%%%%%%%%%%%%%%%%% **************************** #######################################",
"######################################## %%%%%%%%%%%%%%%%% ***********&@%.XX. &********* #######################################",
"####################################### @%%%%%%%%%%%%%%%%% **********%o. ..X   *********@ ######################################",
"####################################### %%%%%%%%%%%%%%%%%% *********@*******X &********** ######################################",
"####################################### %%%%%%%%%%%%%%%%%% ************o%**%@+*********** ######################################",
"####################################### %%%%%%%%%%%%%%  % @***************&************** ######################################",
"###################################### @%%%%%%%%%%   @%%% *******************************@ #####################################",
"###################################### %%%%%%%%% @%%%%%%% ******************************** #####################################",
"###################################### %%%%%%%  %%%%%%%%% ******************************** #####################################",
"###################################### %%%%%%@%%%%%%%%%%% ******************************** #####################################",
"###################################### %%%%%%%@%  @%%%%%% ******************************** #####################################",
"###################################### %%%%%%%%%%%%%%%%%% ******************************** #####################################",
"###################################### %%%%%%%%%%%%%%%%%% ******************************** #####################################",
"###################################### %%%%%%%%%%%%%%%%%% ******************************** #####################################",
"###################################### @%%%%%%%%%%%%%%%%% ********%**********************@ #####################################",
"####################################### %%%%%%%%%%%%%%%%% @******@%********************** ######################################",
"####################################### %%%%%%%%%%%%%%%%%% *****+*@********************** ######################################",
"####################################### %%%%%%%%%%%%%%%%%% **O$$************************* ######################################",
"####################################### @%%%%%%%%%%%%%%%%% &..***&**********************@ ######################################",
"######################################## %%%%%%%%%%%%%%%%% **++++*********************** #######################################",
"######################################## %%%%%%%%%%%%%%%%%%***************************** #######################################",
"######################################### %%%%%%%%%%%%%%%%% *************************** ########################################",
"######################################### %%%%%%%%%%%%%%%%%% ************************** ########################################",
"########################################## %%%%%%%%%%%%%%%%% ************************* #########################################",
"########################################## %%%%%%%%%%%%%%%%%% ************************ #########################################",
"########################################### %%%%%%%%%%%%%%%%% *********************** ##########################################",
"############################################ %%%%%%%%%%%%%%%%% ********************* ###########################################",
"############################################# %%%%%%%%%%%%%%%%@ ******************* ############################################",
"############################################## %%%%%%%%%%%%%%%% ****************** #############################################",
"############################################### %%%%%%%%%%%%%%%% **************** ##############################################",
"################################################ %%%%%%%%%%%%%%%% ************** ###############################################",
"################################################# %%%%%%%%%%%%%%%% ***********@ ################################################",
"##################################################  @%%%%%%%%%%%%%%  ********  #################################################",
"####################################################  %%%%%%%%%%%%%%@ *****  ###################################################",
"######################################################  %%%%%%%%%%%%%@  @  #####################################################",
"########################################################    @%%%%%%%%    #######################################################",
"############################################################         ###########################################################",
"################################################################################################################################",
"################################################################################################################################",
"################################################################################################################################",
"################################################################################################################################",
"################################################################################################################################",
"################################################################################################################################",
"################################################################################################################################",
"################################################################################################################################",
"################################################################################################################################",
"################################################################################################################################",
"################################################################################################################################",
"################################################################################################################################",
"################################################################################################################################",
"################################################################################################################################",
"################################################################################################################################",
"################################################################################################################################",
"################################################################################################################################",
"################################################################################################################################",
"################################################################################################################################",
"################################################################################################################################",
"################################################################################################################################",
"################################################################################################################################",
"################################################################################################################################",
"################################################################################################################################",
"################################################################################################################################",
"################################################################################################################################",
"################################################################################################################################",
"################################################################################################################################",
"################################################################################################################################",
"################################################################################################################################",
"################################################################################################################################",
"################################################################################################################################",
"################################################################################################################################",
"################################################################################################################################",
"################################################################################################################################",
"################################################################################################################################",
"################################################################################################################################",
"################################################################################################################################",
"################################################################################################################################",
"################################################################################################################################",
"################################################################################################################################",
"################################################################################################################################",
"################################################################################################################################",
"################################################################################################################################",
"################################################################################################################################",
"################################################################################################################################",
"################################################################################################################################",
"################################################################################################################################",
"################################################################################################################################",
"################################################################################################################################",
"################################################################################################################################",
"################################################################################################################################",
"################################################################################################################################",
"################################################################################################################################",
"################################################################################################################################",
"################################################################################################################################",
"################################################################################################################################",
"################################################################################################################################",
"################################################################################################################################",
"################################################################################################################################",
"################################################################################################################################",
"################################################################################################################################",
"################################################################################################################################",
"################################################################################################################################",
"################################################################################################################################",
"################################################################################################################################",
"################################################################################################################################",
"################################################################################################################################",
"################################################################################################################################",
"################################################################################################################################",
"################################################################################################################################",
"################################################################################################################################"
};
