/* XPM */
static char *_0332_faa4ee623bffe099074c51978e85cca034c174850b4cac7d083827677d7b8f1a[] = {
/* columns rows colors chars-per-pixel */
"64 64 251 2 ",
"   c #020102",
".  c #0A0304",
"X  c #0C0A05",
"o  c #05030A",
"O  c #0A040A",
"+  c #0C0C0C",
"@  c #050905",
"#  c #140C06",
"$  c #120D0C",
"%  c #1A0E0B",
"&  c #140706",
"*  c #0E110E",
"=  c #12110E",
"-  c #1B140D",
";  c #1C1507",
":  c #0F0D11",
">  c #0A0014",
",  c #130D11",
"<  c #190E14",
"1  c #170719",
"2  c #0E1110",
"3  c #111111",
"4  c #1B1513",
"5  c #1B1A15",
"6  c #1A1519",
"7  c #1C1C1C",
"8  c #171818",
"9  c #241B0B",
"0  c #28180A",
"q  c #231A15",
"w  c #291C14",
"e  c #21161B",
"r  c #241C1C",
"t  c #2A1E1C",
"y  c #241614",
"u  c #331E16",
"i  c #28220A",
"p  c #24211D",
"a  c #2B231C",
"s  c #2D2415",
"d  c #32241C",
"f  c #332A1D",
"g  c #372719",
"h  c #382914",
"j  c #1D1D21",
"k  c #241C21",
"l  c #291E23",
"z  c #2B1E29",
"x  c #242424",
"c  c #2C2224",
"v  c #2D2923",
"b  c #2D242A",
"n  c #2D2A2B",
"m  c #272629",
"M  c #312623",
"N  c #332B25",
"B  c #3A2D24",
"V  c #31262B",
"C  c #342B2C",
"Z  c #392E2B",
"A  c #3C2623",
"S  c #35322C",
"D  c #3B322C",
"F  c #3B3226",
"G  c #352B31",
"H  c #392E33",
"J  c #382C35",
"K  c #363232",
"L  c #3D3433",
"P  c #3D343A",
"I  c #3D3936",
"U  c #432A14",
"Y  c #47341E",
"T  c #422E27",
"R  c #423125",
"E  c #44332B",
"W  c #443B2D",
"Q  c #4B3A2A",
"!  c #423634",
"~  c #433B35",
"^  c #4B3B34",
"/  c #443B3B",
"(  c #4A3E3A",
")  c #42363A",
"_  c #533E37",
"`  c #593B27",
"'  c #6C561F",
"]  c #4C422B",
"[  c #56452A",
"{  c #4C433C",
"}  c #4B4436",
"|  c #544334",
" . c #54443C",
".. c #5A453C",
"X. c #5A4939",
"o. c #664A38",
"O. c #67573A",
"+. c #745839",
"@. c #6A5F2A",
"#. c #746434",
"$. c #47411D",
"%. c #493E42",
"&. c #513F45",
"*. c #4C4443",
"=. c #4C4745",
"-. c #524643",
";. c #544C45",
":. c #5B4B44",
">. c #544C4A",
",. c #5B4E49",
"<. c #564646",
"1. c #5B524C",
"2. c #5B5446",
"3. c #5B5553",
"4. c #574C53",
"5. c #614D47",
"6. c #64544B",
"7. c #6A5A4D",
"8. c #675648",
"9. c #765B47",
"0. c #635553",
"q. c #645B55",
"w. c #6C5B52",
"e. c #645B5A",
"r. c #685959",
"t. c #705D55",
"y. c #6C6348",
"u. c #77674B",
"i. c #6B635D",
"p. c #676359",
"a. c #73635C",
"s. c #7D6C5C",
"d. c #786858",
"f. c #7B7356",
"g. c #7F7447",
"h. c #665A62",
"j. c #6B6764",
"k. c #7C6E64",
"l. c #756C6A",
"z. c #756966",
"x. c #7A7267",
"c. c #7C7473",
"v. c #89713D",
"b. c #84664A",
"n. c #867547",
"m. c #876B56",
"M. c #877659",
"N. c #94745C",
"B. c #946D52",
"V. c #A37C5D",
"C. c #826F66",
"Z. c #887768",
"A. c #977A66",
"S. c #837A75",
"D. c #837A7A",
"F. c #887875",
"G. c #947E78",
"H. c #826C75",
"J. c #A37C64",
"K. c #815A42",
"L. c #93841D",
"P. c #F2D23D",
"I. c #988346",
"U. c #968659",
"Y. c #968E58",
"T. c #A99153",
"R. c #B7A54C",
"E. c #99846B",
"W. c #8C837D",
"Q. c #8C8176",
"!. c #978577",
"~. c #98906B",
"^. c #A3836C",
"/. c #A78663",
"(. c #A89665",
"). c #B99A6A",
"_. c #AB8B74",
"`. c #A58A75",
"'. c #A99576",
"]. c #B3957A",
"[. c #B28C71",
"{. c #B8A576",
"}. c #B5A465",
"|. c #C4AC4D",
" X c #CDB551",
".X c #D3B86D",
"XX c #C8AE70",
"oX c #C69D75",
"OX c #FAD749",
"+X c #EAD657",
"@X c #FBDB57",
"#X c #EAD14F",
"$X c #F7E34B",
"%X c #DBC868",
"&X c #D5C67C",
"*X c #E8CA67",
"=X c #F6D768",
"-X c #E6CA76",
";X c #EEDA75",
":X c #F0D86F",
">X c #FDE667",
",X c #F9E378",
"<X c #DEC35F",
"1X c #897D80",
"2X c #8C8483",
"3X c #978A85",
"4X c #9B9190",
"5X c #A28C86",
"6X c #A89587",
"7X c #BB9D84",
"8X c #B49A87",
"9X c #AC9C95",
"0X c #A69A98",
"qX c #AE9994",
"wX c #B9A38B",
"eX c #B3A49C",
"rX c #BAA597",
"tX c #ADA494",
"yX c #A79EA1",
"uX c #B8A9A6",
"iX c #B4ADAC",
"pX c #C6A787",
"aX c #D4B587",
"sX c #C5AB98",
"dX c #D5B79A",
"fX c #CABE8F",
"gX c #C3ADA5",
"hX c #C6B5AB",
"jX c #D2BDAD",
"kX c #C3B5B2",
"lX c #CCBBB5",
"zX c #C6BBB8",
"xX c #D1BEB7",
"cX c #D2AD8E",
"vX c #D8C69A",
"bX c #F1D68C",
"nX c #FEE48E",
"mX c #D6C5BA",
"MX c #D4C1B1",
"NX c #E8CAAF",
"BX c #CABCC2",
"VX c #D4C5C3",
"CX c #D8CBC7",
"ZX c #DCD2CD",
"AX c #DDD7D3",
"SX c #CFC6C9",
"DX c #E3D5CC",
"FX c #E6D9D7",
"GX c #E4D0CC",
"HX c #EDE1DD",
"JX c #F5E9E5",
/* pixels */
"3 3 3 2 2 , 2 : = 2 * , < ( C._.^.N.pX_.[.7X]._.7X7X_.A.A.A.N.b.J._._.]._.^.7X8X7XJ.m.K.A.5X1X3Xh.k l l x x x x x x x x x x x x ",
"+ 3 $ 3 3 2 2 = : 3 = 3 , ) a.( R w.rX7X8X'.m.A.J.G.8X`.`.N.N.N.m.m.+._.J.^.].7X[.7Xm.A.J.b.1XyX4.k x m x x x x x x x x x x m x ",
"3 2 2 2 2 $ , 3 3 : 2 2 : 7 j.h.- q 5.F.Z.G.sX^.J.^.J.wXA.^._.`.A.o.9.!.E.E.].wXrXsXrXm.5.5.1XBX4.j m x x x x x x x x x m m x x ",
"2 * , 3 3 2 * * * 3 $ 2 , , I D.~ p :.a.6.7.G.8X5X8X_ t.m.A.A.J._.9.o.9.o.Z.U.6XrXrXsXG.F.7.c.FXc.6 x x x x x x x x x x v m m m ",
", * = 2 3 : : 3 : 2 , , , % e.4X>.6 V ,.z.F.G.eXqX5XF.t.t.m.9.A.A.`.o.o...t.!.3X6X5XeXBXxXqXj.kXkX) m x x x x x x x x x x x m m ",
"3 2 : 3 2 = 3 * 3 2 8 6 P D.yXc.x $ y M D N ...._ w.t.a.6.s.d.Z.t.`.t.s.!.5X6X9XuXeXeXkXBXGXW.S.kX0Xe.x c x x x x x x x x x m x ",
"$ 3 3 * , 3 + 3 + = 3 K 3XW.) H ) P >.-.I 3.s.6.6.F.!.H.G.W.G.F.C.m.o.w.!.eXhXkXhXlXVXmXBXFXzX0X0XlXiX{ t x x x x x x x x x x x ",
"2 2 : 3 2 2 3 3 2 2 m l.l.I t P 3.L r C / 1.r.k.5.r.C.k.G.qX6X5XA.A.m.8.Z.eXMXlXkXeXqXuXkXVXCXiXuXuXkXz.a x x x x x x x x x x x ",
": 3 : 3 : 3 2 * 3 8 K >.D q % 4 r k e < & < t ~ e.3X5XH.F.Z.!.6XA.E.`.d.Z.rXlXCXGXZXeXj.;.z.4XS.j.x.kXS.v x x x x x x x x x x x ",
"= * 3 2 3 * 3 , 2 3 p x r $ . O . o , , , O + K =./ / ) &.z.uXVXk.a.8. .mXFXzXD.H.S.W.1.p - =.{ 5 S W.3XI 5 x 7 7 7 7 x x x x 7 ",
"2 3 : = * 3 3 3 * * 8 p k 3 = $ 6 6 8 6 6 % < 8 +   X o O < { D.t.t._ 5.2Xw.M . , & <.2.q - 4 6 * - ;.q.s 7 7 x x 7 7 j x 7 7 x ",
"3 : 3 2 * , * 2 2 2 3 8 6 8 = X a C N c r r e b V 7 $ $ . . & % t :.! ..d ^ A y ^ z.VX3X/ a r 8 8 7 q.q.p p 7 x 7 x x 7 7 x 7 7 ",
"= 3 * 3 2 $ 2 , 3 * 3 8 7 8 3 $ t D C a a d c l k x r 3 - a ,.:.A ( ^ 7.F.sXrXa.<.C.e.e.&.n n 7 5 a i.c.v 5 p 7 7 x x 7 7 7 x 7 ",
"2 : * , 3 2 3 2 2 = 8 7 D v x k l C N D ~ ~ L V r e N ! >.S.9X9XG.Z.Z.G.jXmXCXlXW.( <.%.H C - - N =.2Xx.5 7 p 7 7 7 7 x x 7 7 7 ",
": 3 2 3 , * : 3 , 3 3 p =.S D G b G C ! { *.*.( ~ ( 0.p.x.Q.uXMXsXJ.A.7XNXNXdXVXFXuXD.*.l , = A ;.S.3XQ.I 7 x 7 x 7 7 j 7 7 7 7 ",
"3 2 = : 3 * 3 * 3 3 = N 0.*.Z H b z { 3.>.q.3.-./ ! D / d.G.rXGXsXV.K.N.dXGXxXkX4Xl.N + O 3 N ~ } y.2.!.c.5 8 7 7 7 7 7 7 7 7 7 ",
"* 3 3 2 , 2 , * * 3 3 p  .=.L P P b w Z &.>.e.z.0.H M H z.uXeXjXpX[.V.V.pXGXAXFXiX-.  = 7 v I -.2.O.X.x.H.6 7 7 7 7 7 7 7 7 7 7 ",
"* , 2 2 * 3 3 2 2 2 , r ~ D L / %./ H r < X = c ,.0.C =.h.4X9XwXV.V.B.b.).vXDXHXZXD M B S } X.7.p.p.6.Z.6Xv 7 j 8 7 8 7 7 7 7 7 ",
"2 , 2 $ , 2 2 + 2 2 = $ ! W M ) *.*.&.*.~ c - & % c %.D.uX0XkXmX[.J.B.9.A.gXDXJXzXL D L ~ D W 7.w.:.:.t.tXK 3 7 8 8 8 6 8 8 8 8 ",
"3 * 2 3 * 3 3 3 * 3 3 X S 3.M P %.P *.*.*./ ) N k 6 J *.l.D.l.0XgX8XrXrXuXMXVXJXBX) P / ~ ( | 5.<.Q X.X.uX>.3 6 8 8 8 7 7 8 8 8 ",
", 2 * , 3 * 2 2 2 2 * = *.,./ c L ! ~ ( ~ D C C C b c H I G 7 n -.p.2X4X4XS.e.zXD.N L D L } W  .:.Q ..6.9Xc.X e 4 8 8 8 6 8 8 7 ",
"* 3 2 3 2 , , 2 2 2 + 8 -.a / S B N D ! D N p k r c b c K I x   $ 4 x j x 7 7 3.C B Z L K E v D { ^ | 8.!.mXq.- 5 7 8 8 8 8 8 4 ",
"2 3 2 2 3 3 * 2 2 2 = 7 ;.p q E N N L H C e 7 x x c l z l n / P e 3 : : 8 4 n C A N N C L L N M I } Q 5.3XrXlXB 3 8 8 8 8 4 8 3 ",
"* , $ 3 2 3 + 3 2 2 X D -.- 5 a B D P b e , 8 j c z c x l x l H ) H C C G H G S S N l l V G ! !  .a.s.A.6X].gXx.+ 5 3 8 8 3 3 8 ",
"+ * 2 : * 2 3 3 * , + *.C - - a F D S a t q 6 t x l c l r c l l b V V G G G G Z G V r l e t C ( i.Q.'.8X8XwXrX3X3 8 8 3 3 8 3 8 ",
"+ + + + : 3 3 : 2 + 6 *.t - q C D D F v D N l V c M V c l l c V V V V G V G J G V V r l l k r V l.eXrX6X8XwX6XtXK $ 8 3 8 3 3 3 ",
"+ + + + + 3 , 2 2 + 7 / q 4 a Z L W F ~ } F v C M V G V l l z V z V V V G G G G C V l c l r r k >.eXgX6X{.wX8XiX3.@ 8 8 2 8 3 3 ",
"+ + + + + : 2 2 * * S =.q 5 M D L D I 2. .D N { D c P C r c V c V c l V G G V Z G V a l l r l l C 1XhXtX'.{.8X9X0XI O , 2 2 , 3 ",
"+ + + + + + + $ * X =.>.5 5 C L I D } 5.| R N -.1.L D v c z z V z M V c V G G Z V V x z l r e l r j.iXhXpX].6X5XBXBXc.k , 2 2 2 ",
"+ + + + + + + + + - q.{ 5 w N ! D 2.a.^ E B V <.q.( D N N V V v c z V V V Z G G V c b z z k 4 p r >.SXjXdXsXwXeXxXSXCX0Xn : 3 3 ",
"+ + + + * + 2 = # t j.~ 5 t Z L D i.w.^ Q A A 5.0.Z N S A M d a c z z V V G V V V b x t l l r N a I zXMXsXrXrXrXjXeX0XiX3.: 3 2 ",
"+ + + * * 2 2 , & C l.C q V L H / / N :._ ^ -.r.i.( C f N v v a l z V V V G V V V V c l c V A R W I eXjXgXrXeXgXgX5X!.4Xj.3 < , ",
"2 * + + : 2 2 < > *.r.6 l G J H P c a | 7.6.=.1.e.E S d V V e r l l z b V V V k t x c a a N W X.6.5.5XxXkXlXlXhXgX3Xs.6.-.e & 3 ",
"+ + + + + + * = , l.%.r N Z L D c a a ~ 6.{ L { =.V N M s ~ ^ y 6 e k l z l w W R p x w a N Q 6.a.t.C.hXxXlXlXlXhX!._ R <.( % % ",
"+ + + + + 2 2 X l z.V r N D F Z N a 5 C =./ D D N a a v d o.].`...u h g u Q ^.pXN.s r M c N W :.t.,.0.kXGXVXCXxXlXqXT Q w.s.T & ",
"+ + + 3 + 3 3 . 4.r.r v D D D C v a 7 7 I { S N v B M c w ` +.oXaXaXoX).oXaXaX).N.u t x V C E *.~ M -.H.CXCXGXCXlXuX*.D :.C.Z.w ",
"+ + + + + * X 7 h.G l b F D D C N t r 7 7 n S S n v c c 5 y.).aXcX).pXaXXXoXNXNX^.w c l c C ) ( C M =.>.0XFXFXGXSXmXp.C ..5.!.6.",
"+ + + + + + @ K P k V D Z ~ / V v z x 6 8 j n n v m x x q } M.m._.^.wXpXdX_.dXNXZ.- x r z V P C c V ) ) c.VXHXFXZXZXQ.N B ^ s.q.",
": + + + + + 8 =.V x H Z D L { c b V m k 7 8 7 j 7 x 7 p y 9 y U | `.u.Y `.8Xb.m.R q r x l M V x c G J J e.0XSXFXAXAX9XN M T w.p.",
": $ X + + @ / *.a A Z D D N 1.-.t a x x j 5 5 7 7 7 8 ; R ..y t A d E ^ R R E g t t t m x m 8 6 x C G J D.4XyXSXFXAXiX! r N *.4.",
"O # # # O 8 j.n y c M M C e % ;.-.B c c r 8 8 8 7 6 -  .E.F % 0 y t T B s u ..d y t r x x x 8 r m G V G h.1XiXBXAXFXVXqXC n ! C ",
"5 r a t 8 >.l.n r c V d v A M ~ w.^ C N k k 7 8 4 % F M.] ; p - - q q w 0 ` m.u t r r m x 7 k V V V G G z %.yXFXAXFXHXHX2XV V % ",
"Q ^  .^ 3.l.K 7 k z V a ] 7.8.8.5.X.F 5 4 r 7 5 8 ; ] | 9 - a p w d A g Y +.A.d q w a l x 7 7 m C b b b J &.3XAXCXGXFXHXZX=.y % ",
"| _ E | k.S p p t z c M E E E Z g u S 5 $ = , 3 8 - F f # 9 a v B R Q R U ` sX..4 x r 8 7 7 7 7 7 x z z z z c.SXSXmXDXFXJX0X$ 4 ",
"B g M i.~ 4 p 7 l x $ 4 6 , 1 < < , e 8 7 8 + + + # q q - a q a B E d u U b.7XB w q % 3 8 , 5 7 x a l e 4 L D.iXZXGXGXDXFXJXc.@ ",
"{ 3.c.3.j 7 5 8 8 7 3 : : + 3 < < K G j 7 8 8 3 + X . = q q 4 4 t 5 & 0 ` J._.B = $ X + + 7 { j.3.a.k.} f } z.S.gXZXmXzXCXDXZXp.",
"W.j.>.K x x 7 3 3 8 8 o o O O O &.%.3 8 3 + X 3 O . o + 4 4 r $ 3 ; s o.B.N.9.y = # X   7 *.*.-./ l.Q.y.y.F Q y.E.'.~.'.E.f.~.mX",
"j 8 3 @ 3 3 3 5 8 8 + + + @ @ + K k . . + + + $ + X o + 4 r l % X w 9.[./.+.0 . X & o o 3 8 $ t q n 3.3.} ] f d.!.7.u.Z.Z.m.f.tX",
"+ + + o   o @ @ 3 x r 7 7 7 7 7 8 4 3 3 8 5 I / m : O 7 I K S p & w 9.7X].gX<.8 k 7 j j 7 7 7 e q 8 j n x v K 3.=.p.q.=.~ { / { ",
"@                                                                 o     . o + @ + + o + * = $ > + O                 o O . .     ",
"                      q f.g.g.M.C.C.x.k.f.g.n.g.f.x.s.x.Z.n.n.n.B                       @ @ & O . r :.f.f.g.f.s.7.g # o o o o @ ",
"                      B bX>X,XT.o._ ^ R ).>X>X.XX.! } [ n.-X@X,XO.                    @ @   0 +.).vXvX'.f.y.y.Q.fXbXXXn.r o o   ",
"                      g bX%X[           n.OXP.R.;         0 R.,XO..               o .   # #.XXbXbXU.s .         v.=X=XnX(.;   @ ",
"      @ @     @ o o   p ~.]     O o o . I.OXOX|.0 . o o o   w ~.[ . . o @ @     o .   ; v.-X,X-Xv.%   . o     ; I.,X*X,X&X$.  o ",
"  O O               o o     @     o   . I.OXOX|.i   O O o o o               o o @ . X #.;X-X*X*Xu . .   o @   X [ oXfXvXN.; . o ",
"@     t 6.y.2.7.X.-   o O .         o . I.@XOX|.i   o O .   o o M ;.2.O.u.O.s       B {.=X*X+XR.0 . X . o @ @   O < r 5 X O .   ",
"  s T.aXM.W f | -X-XO.  @ o       . o   v.@XOX|.9           s {.bXC.d N O..X;Xb..   F &X+X+X#XL.;   .   . O O X O > o     o   o ",
"Y .XnX#.      ; }.nX(..   o     o .   . I.@XOX|.9 o   o     ] fX{.d       ' @X<Xh   B }.*X+X#XR.i   o     . O . . O . O @ X o o ",
"}.:X Xi   X   . l Z 4   o       . o   @ I.$XOX|.i       o .   @ . q { 1.y.T.#X+XY   ; n.=X#X@X.Xh @ O o   @ o   . . . O     . o ",
"}.@X Xi   o . . o       o         o o   I.@XOX|.i       . . i y.}.).a.^ r ' $X%Xh   @ Y .X=X#X#XR.h   . o o o + O O o   D k.C . ",
"+.=X+X@..           v p                 v.P.OX|.;         w XX>XR.&       ' @X<Xh     . $.%X+X#X:X}.[ ; .           f x.lX4Xa X ",
"# g.:X;Xn.Y t r N a.3XG       @ + x p [  X$X$X=Xn.g a 3   s .X>X|.R t S | T.@X:XO.7 *   @ v Y.%X:X,XbX XU.n.d.d.f.~.vX8X ..   @ ",
"o   f #.}.(.~.A.s.} &       o   n W.Z.~.T.T.I.Y.~.U.E.>..   s n.R.).A.s.~ 0 #.(.^.Z.b   @     i O.n.Y.Y.~.(.6X6X!.p.f .         ",
"o + @ @   O +                                             o     . .                 . o o @                       @     O o   o "
};
