/* XPM */
static char *_8153_59817afcdfedf8fcd76166f7b1d03dca2e36a53ca787d80a49985266a9d414f2[] = {
/* columns rows colors chars-per-pixel */
"64 64 248 2 ",
"   c #3A2F2B",
".  c #422E2C",
"X  c #48352C",
"o  c #4A3935",
"O  c #543F3A",
"+  c #4D433E",
"@  c #55423C",
"#  c #5A453C",
"$  c #58473A",
"%  c #5C4C37",
"&  c #634C3F",
"*  c #604639",
"=  c #65543D",
"-  c #443E4A",
";  c #494345",
":  c #5C4B43",
">  c #584843",
",  c #5B534B",
"<  c #524C54",
"1  c #5C5655",
"2  c #624D45",
"3  c #694E43",
"4  c #654D4A",
"5  c #6B5444",
"6  c #65544B",
"7  c #6A544C",
"8  c #6D5C4C",
"9  c #645746",
"0  c #72554A",
"q  c #735B4D",
"w  c #755947",
"e  c #6B5551",
"r  c #6C5C54",
"t  c #645751",
"y  c #725C54",
"u  c #765B56",
"i  c #74634D",
"p  c #6D6356",
"a  c #756354",
"s  c #7B6355",
"d  c #7C6C56",
"f  c #74645A",
"g  c #7B645C",
"h  c #7C6B5B",
"j  c #766D5A",
"k  c #79715C",
"l  c #6C634D",
"z  c #7E6B62",
"x  c #766B65",
"c  c #7E7164",
"v  c #76726F",
"b  c #736E70",
"n  c #846C5C",
"m  c #8A6D5A",
"M  c #836856",
"N  c #83725E",
"B  c #8C725D",
"V  c #8D6D57",
"C  c #836C64",
"Z  c #896C63",
"A  c #857364",
"S  c #8A7464",
"D  c #8D7965",
"F  c #84746C",
"G  c #89746B",
"H  c #867A6B",
"J  c #8B7A6C",
"K  c #857A64",
"L  c #937669",
"P  c #937B6C",
"I  c #957A66",
"U  c #8C7D73",
"Y  c #877B78",
"T  c #937C72",
"R  c #906E62",
"E  c #AF776D",
"W  c #8C826A",
"Q  c #95826B",
"!  c #9B856D",
"~  c #8C8273",
"^  c #8E8677",
"/  c #948573",
"(  c #9B8474",
")  c #938A75",
"_  c #9B8A74",
"`  c #94857B",
"'  c #948B7B",
"]  c #9C8C7C",
"[  c #9C847B",
"{  c #9B917D",
"}  c #A48B75",
"|  c #A38C7B",
" . c #A68978",
".. c #B38A7B",
"X. c #A3917D",
"o. c #AB937D",
"O. c #A6987E",
"+. c #AB8C76",
"@. c #9A8B83",
"#. c #9D9383",
"$. c #9A938A",
"%. c #999592",
"&. c #A88D82",
"*. c #A59483",
"=. c #AC9484",
"-. c #AC9B85",
";. c #A49B8B",
":. c #AC9B8A",
">. c #A69689",
",. c #B39B85",
"<. c #B49D8B",
"1. c #B79887",
"2. c #A59D92",
"3. c #AB9E92",
"4. c #B49C92",
"5. c #B29692",
"6. c #B08F80",
"7. c #AAA38E",
"8. c #A6A28D",
"9. c #B2A28C",
"0. c #BBA38C",
"q. c #B6A186",
"w. c #ACA493",
"e. c #ACA699",
"r. c #B4A492",
"t. c #BCA393",
"y. c #B4A997",
"u. c #BCA995",
"i. c #BBA499",
"p. c #B4AD9B",
"a. c #BCAB9B",
"s. c #B2A69A",
"d. c #BAB19D",
"f. c #B4ADA3",
"g. c #BCB4A3",
"h. c #B9B5AA",
"j. c #BCB5B3",
"k. c #ADA3A4",
"l. c #C49B8F",
"z. c #C3A594",
"x. c #C5AB94",
"c. c #C3A69C",
"v. c #C4AB9B",
"b. c #CBAB9A",
"n. c #C3B19D",
"m. c #CBB29D",
"M. c #CCB297",
"N. c #D1B59E",
"B. c #CAA395",
"V. c #E4A09D",
"C. c #CAAEA1",
"Z. c #C3ACA2",
"A. c #D8AFA3",
"S. c #C4B3A3",
"D. c #CBB4A4",
"F. c #CDB9A5",
"G. c #CCB4AA",
"H. c #C3BBAB",
"J. c #CCBAAB",
"K. c #C3B7A8",
"L. c #D3B4A3",
"P. c #D3BAA5",
"I. c #D2B5A9",
"U. c #D3BCAB",
"Y. c #DBBDAB",
"T. c #D9B6A7",
"R. c #C5BDB3",
"E. c #C8BFB4",
"W. c #D4BEB1",
"Q. c #DCBDB2",
"!. c #EAABA7",
"~. c #E1B8A8",
"^. c #E6BDB2",
"/. c #F6BBB7",
"(. c #C9C1AE",
"). c #D5C1AE",
"_. c #DCC2AD",
"`. c #C5C2B5",
"'. c #CBC3B4",
"]. c #CCC4BB",
"[. c #CCC6BC",
"{. c #D4C3B2",
"}. c #DCC4B4",
"|. c #DCC5B9",
" X c #D3CBBB",
".X c #DECAB9",
"XX c #DAC7B8",
"oX c #DDD1BE",
"OX c #E5C2AF",
"+X c #E3C5B4",
"@X c #E4C8B6",
"#X c #E9C9B6",
"$X c #E3C6BA",
"%X c #EBC6BA",
"&X c #E4CABC",
"*X c #EBCCBD",
"=X c #EAC3B4",
"-X c #F3CDBE",
";X c #F5C7BC",
":X c #E5D1BE",
">X c #F1D1BE",
",X c #D5CDC3",
"<X c #DACCC2",
"1X c #D2CFC8",
"2X c #DBD5CB",
"3X c #D8D3C7",
"4X c #DDDBD2",
"5X c #D9D6D0",
"6X c #CAC7C2",
"7X c #E5CDC1",
"8X c #ECCDC2",
"9X c #E8CFC8",
"0X c #F2CDC3",
"qX c #F7CCC4",
"wX c #E5D2C2",
"eX c #ECD2C4",
"rX c #EDD4CA",
"tX c #E5DECD",
"yX c #EED9CB",
"uX c #E7D9C7",
"iX c #F2D2C5",
"pX c #F3D5CB",
"aX c #FAD5CB",
"sX c #F4D9CD",
"dX c #F9D9CD",
"fX c #F5D6C7",
"gX c #E4DDD3",
"hX c #E7DDD6",
"jX c #F2D7D1",
"kX c #FAD6D1",
"lX c #F5DCD2",
"zX c #FBDCD3",
"xX c #FBDED9",
"cX c #F7DED9",
"vX c #ECE2CF",
"bX c #E6E2DD",
"nX c #EBE5DD",
"mX c #EAE4D7",
"MX c #F5E0D6",
"NX c #FBE1D6",
"BX c #FDE4DA",
"VX c #FFE9DE",
"CX c #F3E7DA",
"ZX c #EDE9E4",
"AX c #E8E5E1",
"SX c #F4EBE3",
"DX c #F7F3E5",
"FX c #FFFFFF",
/* pixels */
"FXFXFXFXFXFXFXFXFXFXFXFXFXFXFXFXFXFXFXFXFXFXFXFXFXFXh.x h ` #.;.7.7.7.g.H.3XCXFXFXFXFXFXFXFXFXFXFXFXFXFXFXFXFXFXFXFXFXFXFXFXFXFX",
"FXFXFXFXFXFXFXFXFXFXFXFXFXFXFXFXFXFXFXFXFXFXAXj.%.v p t v U J #.#.7.8.g.(.(.H.2XnXFXFXFXFXFXFXFXFXFXFXFXFXFXFXFXFXFXFXFXFXFXFXFX",
"FXFXFXFXFXFXFXFXFXFXFXFXFXFXFXFXFXFXFXAXf.v 1 1 ; ; , , g F u 4 l W ~ { 7.g.g.H.[.3XgXFXFXFXFXFXFXFXFXFXFXFXFXFXFXFXFXFXFXFXFXFX",
"FXFXFXFXFXFXFXFXFXFXFXFXFXFXFXFXFXFX5X$.p 1 1   1 o x @.Y Y @.5.*.) K D ~ { >.w.R.'.2X5XZXFXFXFXFXFXFXFXFXFXFXFXFXFXFXFXFXFXFXFX",
"FXFXFXFXFXFXFXFXFXFXFXFXFXFXFXFXFX2Xe.x , $ + o ; 4 o . o o . O 3 X.4.*.X.>.*.y.d.w.g.R.3XbXFXFXFXFXFXFXFXFXFXFXFXFXFXFXFXFXFXFX",
"FXFXFXFXFXFXFXFXFXFXFXFXFXFXFXSX Xp.^ p $     . X ; o o . . - o X X $ T u.9._ -.u.K.*.g.R.1X2XFXFXFXFXFXFXFXFXFXFXFXFXFXFXFXFXFX",
"FXFXFXFXFXFXFXFXFXFXFXFXFXFXmX,X Xy.J a t , o o O > O 4 e u F g g q 3 3 d 0.M.,.O.0.:.A s.f.6X9XFXFXFXFXFXFXFXFXFXFXFXFXFXFXFXFX",
"FXFXFXFXFXFXFXFXFXFXFXFXFXgX'.g.:.;.' x 9 % o O e e x C Z T 5.c.i.1.(  .( I ! x.x._ -.] g &.3.<X5XZXFXFXFXFXFXFXFXFXFXFXFXFXFXFX",
"FXFXFXFXFXFXFXFXFXFXFXFXmX].;.3.3.@.G f 6 # 4 z [ 5.f.G.W.|.}.$X7X^.Q.G.z.,.o.} ,.z.Q ! D 8 4.:.1X1XAXFXFXFXFXFXFXFXFXFXFXFXFXFX",
"FXFXFXFXFXFXFXFXFXFXFXDX].2.] ] F g 7 7 u A &.4.G.|.%X*X7X7X%X:X7X8X8X9X@XY.x.1.+.o.o.M D A s *.f.1XbXhXFXFXFXFXFXFXFXFXFXFXFXFX",
"FXFXFXFXFXFXFXFXFXFXFX,X2.J H a : 2 7 C [ 4.G.7X$X9XiXeX8XiXeXfXpXpX0XrXiX>XOXL.z.o.} } M I q o.@.f.9X5XZXFXFXFXFXFXFXFXFXFXFXFX",
"FXFXFXFXFXFXFXFXFXFXgX2.F z 8 @ # u T >.g.I.|.9XeXpXeX8XeXiXiXfXpXjXqX9XeX*X#X#XT.M.o.+.B M I V >.p.R.].2XFXFXFXFXFXFXFXFXFXFXFX",
"FXFXFXFXFXFXFXFXFXFXj.H p g $ $ y T 4.Z.J.}.&X>XrXsXiXpXpXpXfXfXjXpXsXpXeXiXeX0X>XT.z.1...B V V -.w.K.2X<XhXFXFXFXFXFXFXFXFXFXFX",
"FXFXFXFXFXFXFXFXFX2X$., x 6 # y J -.v.J.{.&XwXuX:XiXeXiXsXsXsXdXaXjXsXpXpXpXiX0X#X#X@Xz.1.+.I I ` r.a.J.].,XAXFXFXFXFXFXFXFXFXFX",
"FXFXFXFXFXFXFXFXFXh.x , z > 7 z _ 0.F.).&XeXfXfXsXdXsXsXaXsXsXsXsXsXpXpXpXsXpX8XfX0X^.+X1...I V S / a.J.H.6X1XFXFXFXFXFXFXFXFXFX",
"FXFXFXFXFXFXFXFXbXe., z : 2 y G X.u.P._.:X:XuXyXfXsXsXsXsXsXpXkXsXsXsXsXsXpXpXqX0X8X*XY.N.1.o.V I A i.K.s.R.R.bXFXFXFXFXFXFXFXFX",
"FXFXFXFXFXFXFXFXoX^ + c > t f U | v.P.}.@X:XsXyXpXjX9XjXjX9XcXrXyXyXlXlXkXrXjXjXeXwX&X_.~.x.+.V D L *.a.d.w.(.`.FXFXFXFXFXFXFXFX",
"FXFXFXFXFXFXFXFXH.c , j > 9 f F o.u.U.@X:XXXeXwXpX9XrXrXrXjXjXjXlXlXlXkXrXjXjX9X8XeXXX@XY.~.q.E Z A ] 9.d.y.H.`.5XFXFXFXFXFXFXFX",
"FXFXFXFXFXFXFXDXe.l t x , t r F o.x._.{.{.:XwXrX9XrXjXpXjXxXlXlXyXMXxXkXkXkXjXkXeXwX@X@X_.Y.z.! Z Z P | d.w.f.h.`.FXFXFXFXFXFXFX",
"FXFXFXFXFXFXFXgX$.l 8 H 6 6 8 J X.0.F.).}.&X7XeX7XpXjXjXpXjXjXzXNXeXc.5.Z.G.|.cXrX9X:X@XOXP.b.} L m S / p.7.e.h.h.4XFXFXFXFXFXFX",
"FXFXFXFXFXFXFX3X#.9 , Y t @ r P _ u.D._.&X&XeXi.=.T L  .Z.pXsXzXeXU.&. .&.5.c.c.rXrXrX*X+XU.m.+.L M M J r.3.8.e.j.`.FXFXFXFXFXFX",
"FXFXFXFXFXFXFX X{ , % ~ a o h [ _ D.F.U.}.&X1.<.5.c.I.C.c.iXpXdXeXF.Q.C.G.G.I.&.rXjX9XeX}.+XL.<.R u u Z ;.3.;.%.f.h.AXFXFXFXFXFX",
"FXFXFXFXFXFXSX'.' r , ` e O J *.<.m.D.}.{.$X[ G.Q.I.C.I.B.Q.iXaX8XC.G. .4 G 5.jXrXjX9XeX.X}.F.z.R 0 0 Z / *.@.@.2.k.].FXFXFXFXFX",
"FXFXFXFXFXFXmXH./ p 6 @.> $ H &.u.D.U.{.@X&X8Xc.M 0 * b.Y.c.iXaXT.I.i.Q.C G.F 9XkXlXpX7X8X}.U.v.L M 0 M C @.' @.@.e.e.5XFXFXFXFX",
"FXFXFXFXFXFX3Xg.{ l r $.: 7 S -.t.P.U.}.$X7X}.=.&.C.A.Y.Q.z.iXiXA.Q.8XiXsXjXcXcXxXkXjX9X8X$XU.v.6.q 3 u C U U T ~ $.@.`.FXFXFXFX",
"FXFXFXFXFXFX,Xg.^ r r >.# y S ,.x.I.P.}.+X+X*XQ.$X8X8X8X%XB.-XiXQ.^.aXzXNXBXSXSXBXcXjXpX9X*X{.m.1.V 3 0 u G Y Y U Y @.h.5XFXFXFX",
"FXFXFXFXFXZX`.d./ 6 r @.O g D q.v.P.Y.}.}.{.*XiXiX%X0XiX+Xb.iXiXA.A.pXkXNXBXxXBXxXkXkX0X8X*XW.D.l.L 0 3 u C F U J z H 2.h.FXFXFX",
"FXFXFXFXFXbXH.p.^ 4 e Y O h I q.x.Y.Y.}.$X+X*X*XeX%XpXpXY.T.iX*X~.b.8X7XsXxXxXSXkXjX0X0X%X+X).F.B. .q 3 7 C z C / c a { e.bXFXFX",
"FXFXFXFXFX,Xh.8.) 6 e z > Z } 0.M._._._.@X*X*XeXiX%XiX*Xb.L.>XfX^.T.zXsXlXcXcXkXkXkXqX0X@X@X_.P.B.+.M 0 2 g g u S k d c e.j.FXFX",
"FXFXFXFXFX Xd.#./ 8 e r 4 P o.x.N.Y.OX#X*X*X>XiXiXpXaXaXz.+...1.l.l.0XpXsXyXlXlXjXqX0X8X=X+X_.P.M.o.S M 2 C C C h N d h ^ h.4XFX",
"FXFXFXFXFX[.e.{ ~ z 6 4 2 [ <.M.N.T.#X#X*X#X>X-XiX0X8X0X^.C.%XdX^.%XpX8X7XuXyXxXqXqX;X%X+X+X+X_.M.z.} u 7 z C A N A h K U h.1XFX",
"FXFXFXFXAX`.p.#.~ U 6 > >  .x.N.L.T.#X#X#X>XiXeXiXdXaXiXaX$XaXiXqXaXiX8X8XrXrX9XrX0XqX%X=XOX@X_.N.B.+.q q y u C B d N K ~ $.6XFX",
"FXFXFXFXvXn.9._ ) ' , $ q =.D.Y.~.OX#X#X-X8XiXpXkXqXqXkX/.!.V.!.!.^.;X;X;X-X-X-X-X-X-X#X#X#X#X+XP.x.q.i C 9 a a S d N A ~ 8.(.CX",
"FXFXFXFXtXd.-.) ' @.9 $ H 9.m.+XOX#X-X-X>XiXpXpXpXxXxX/.B.E E E ....l.A.;XqXqXaXiXfX>X>X*X8X%X$XOXM.q.B 7 C 7 n f n J a K #.h.3X",
"FXFXFXDX'.d.{ / { T : 9 ` t.D.@X#X>X>X>XiXpXaXzXsXzXkX~.V.B.!./.^.A.A.=X-X-X-XdXfXfXiXiXiXiX%X#X_.P.q.P 4 u g f C G J a c ~ w. X",
"FXFXFXCXH.0.Q / ] a > t ` v.U.}.#X>XfXfXaXdXsXzXxXxXxXxXkXkXqX;XqXqX;X;X%X-XfXaXaXaXfXfXfXiXeX*X+XD.z.| O u f u h C C h c ~ %.vX",
"FXFXFX2XJ.>._ ( / 6 6 7 ` i.E.XX>XeXfXdXzXzXzXzXNXcXxXxXNXzXaXaX*XqXpXiXiXdXzXdXdXdXdXpXkXkX0X8X@XN.v.| : 4 g u u z g g h ~ ;.gX",
"FXFXFX,XH.:.X.| / s C 2 [ s.J..X*X>XfXNXzXzXzXzXxXNXVXBXNXzXpXpXpXaXpXiXiXpXpXaXdXzXzXzXzXkXrX0XOX).t.[ 4 # u e e u z y z c @.,X",
"FXFXbX<XZ.9.o.| ( S [ 7 P i.G. X&XeXfXMXxXxXzXzXcXMXMXcXMXlXjXyXpXiXpXpXiXpXzXBXNXNXNXNXzXaX0X9X+X).0.[ > C 4 u e e q y c c ' 3X",
"FXFXmX XS.,.=. .} L  .s s c.J.W.*XeXsXzXxXxXxXxXxXNXMXMXMXhXlXyXsXsXrXrXrXzXsXsXzXNXBXNXxXaX0X8X_.P.<.D 3 C e u e e 7 a f H @..X",
"FXFX,XoX).u.o.I B I 1.w u z.D.W.$X8XaXzXxXxXkXkXxXzXNXBXBXcXlXlXjXrXjXrXrXrXyXjXsXlXxXxXzXkX0X9XOXP.=.C & P u 4 4 0 0 q A H #.vX",
"FXFXgXmX{.n.9.} R V V w w t.F.W.|.9XjXkXkXkXkXkXxXxXNXSXSXNXMXMXjXaXyXrXrXrXsXsXsXlXNXzXaXrX8X^._.M.<.5 g &.y 7 0 3 7 8 J c w.ZX",
"FXFXCXCXuXoX).} w = M I m t.v.U.$X8XsXkXzXkXkXkXNXNXNXVXVXVXBXBXlXsXsXrXrXeXrXsXiXsXzXsXpX9X7X$XL.v.=.5 =.&.q 5 0 3 w q ' ~ H.FX",
"FXFXFXgXCXvXsXX.I V I 0...t.C.{.|.8XpXpXkXzXkXkXdXdXNXVXVXBXBXNXsXlXaXsXpXeX9XrXrXeXrXpXrX0X7X*X_.P.,.( Y.>.B d 3 0 i J ` #.1XFX",
"FXFXFXFX4XDXZXd.) ! I 0.=.4.G.C.|.9XrXiXaXpXpXpXsXlXlXNXBXNXzXdXiXpXiXrX8X8X8X7X8X9XeXeXeX8X%X$XI.c.=.z.P.<.N M w i H :.#.h.FXFX",
"FXFXFXFXFXDXFXvXn.-.! I w <.Z.J.}.7XeXeXpXpXiXiXsXsXlXsXzXzXdXpXpX8X8X*X$X*X*X*XeX8X8XeXeX8X&XQ.P.v.=.:XF.} B I M I _ i. XAXFXFX",
"FXFXFXFXFXFXFXDXCX).u.P = =.i.G.{.&XwXuXpXeXrXeXfXsXsXsXsXdXdXpXqX0X*X%X$X@X$X8X:XeX*XeXeX8X@X{.I.b.| i.,.D Q Q Q O.<.'.FXFXFXFX",
"FXFXFXFXFXFXFXFXDXoX| D 0 G Z.S.W.XX&XwXeXeX8XuX:XyXyXsXfXsXsXaXiX0X*X%X$X$X$X#X%X&X*X&XeX*X$XY.I.c.T * M _ } ! o.0.XXFXFXFXFXFX",
"FXFXFXFXFXFXFXFXFXgX#.j = = x.L.J.|.7X9X7X7X8X8X8X0XrXpXsXiXsXyX0X0X8X8X*X&X@XXX@XwX&XwXeX7X|.I.D.v.N d { W ) 8.`.5XFXFXFXFXFXFX",
"FXFXFXFXFXFXFXFXFXZXg.i = % m.m.J.{.|.|.7X$X$X*X8X8X0XpXsXsXsXkXiX0X8X8X&X&X&X&X@X:XwXrXeX|.|.}.G.u.d / W K 8.vXmXFXFXFXFXFXFXFX",
"FXFXFXFXFXFXFXFXFXSXp.= d i v.G.G.{.}.XX$X7X%X$X%X8XiXaXsXNXzXlXaXiXeX8X%X8X8X&X7XwX7X&X.XW.{.W.Z.-.= a K ^ H.FXFXFXFXFXFXFXFXFX",
"FXFXFXFXFXFXFXFXFXFXw.= Q P } D.S.J.}.XX$X$X&X8X*X8XiXsXdXzXlXcXjXsXiXeXeXeX&X*X&XeX$X.X.X.X}.G.S.*.$ Q K g.FXFXFXFXFXFXFXFXFXFX",
"FXFXFXFXFXFXFXFXFXFXy.l _ X.d S.n.S.).}.@X@X@X:X&X8XpXsXzXsXlXsXsXpXiXpXiXeX#X#X&X#X:X&XXX}.).S.r.h K h >.DXFXFXFXFXFXFXFXFXFXFX",
"FXFXFXFXFXFXFXFXFXFXH.k X.q.D U.F.(.F.).XXXX}.@X@X8XsXlXsXMXlXlXpXpXiXeXiXeXeX*X%X@X@X&X{.U.F.n.| 8 h 7.'.FXFXFXFXFXFXFXFXFXFXFX",
"FXFXFXFXFXFXFXFXFXFX XW O.9.:.J.u.n.F.).}.@X.X_.@XeXrXsXzXMXsXlXyXyXsXyXiX>X%X#X+X+X}.}._.J.S.-.9 k J ^ gXFXFXFXFXFXFXFXFXFXFXFX",
"FXFXFXFXFXFXFXFXFXFXuX~ O.r.g. XW q.n.m.(._._._..XeXsXsXsXMXNXNXsXsXsXsXiX*X@XOXOX@X@X_.F.S.*.= 9 i % ~ FXFXFXFXFXFXFXFXFXFXFXFX",
"FXFXFXFXFXFXFXFXFXFXDX8.8.d.vX X9.! 7.r.F.).)..XXXeXyXlXlXMXBXCXNXNXNXsX>X>X>X@X@X+XP.P.u.-.D l k l , R.FXFXFXFXFXFXFXFXFXFXFXFX",
"FXFXFXFXFXFXFXFXFXFXFX Xy.(.FXgX9.9.! _ q.d.n.{.&XwXyXlXMXcXNXBXvXNXNXyXyXfX#X@X}.L.m.<.( Q 9.d W k k 2XFXFXFXFXFXFXFXFXFXFXFXFX",
"FXFXFXFXFXFXFXFXFXFXFXFXtX[.FXFXr.9.O.{ W { -.n.)..XuXyXsXlXlXcXVXyXuXsXeXeX&XU.L.0.} i *.n.r.Q ) k ;.FXFXFXFXFXFXFXFXFXFXFXFXFX",
"FXFXFXFXFXFXFXFXFXFXFXDXDXs.FXk.9.u.9.9.! d ! _ 9.J.wXwXwXwXrX9X:XuXeXyXyX}.m.P.=.B N 9.n.D.(._ ^ ' p.FXFXFXFXFXFXFXFXFXFXFXFXFX",
"FXFXFXFXFXFXFXFXFXFXFXFXFXj.j.b d.r.u.*.-.] h A D -.J. XXXXX<X<X7X.X7X&X{.U.r.D i _ 9.).).XXJ.] ^ %.FXFXFXFXFXFXFXFXFXFXFXFXFXFX",
"FXFXFXFXFXFXFXFXFXFXFXFXFX2Xp < a.F.d.p.7.-.] / 8 h / 4.G.J.G.Z.K.G.G.S.9.S a A -.-.J.&X:X.XD.-.v ~ ZXFXFXFXFXFXFXFXFXFXFXFXFXFX",
"FXFXFXFXFXFXFXFXFXFXFXFXZX%.< < y.K.{.J.:.:.:.>.>.H r 7 y g C C h C f 2 # K -.r.F.(.{.:XoX).oX-.1 < 1 FXFXFXFXFXFXFXFXFXFXFXFXFX",
"FXFXFXFXFXFXFXFXFXFXFX5Xx b < - y. X'.{.(.7.w.-.:.-.*.] U F g f s C P ] 4.r.S.K.(.).oX:XuXoX'.:.  ; < b FXFXFXFXFXFXFXFXFXFXFXFX"
};
