/* XPM */
static char *_2273_532a604d7c95bf159b9281ae59e36875fabc431593c02135d9abf0c0b20a27a8[] = {
/* columns rows colors chars-per-pixel */
"64 64 236 2 ",
"   c #0C0C0D",
".  c #120D0D",
"X  c #1B0C0C",
"o  c #190504",
"O  c #14110E",
"+  c #0E0E10",
"@  c #120F11",
"#  c #180F10",
"$  c #141313",
"%  c #1A1514",
"&  c #1E1916",
"*  c #171719",
"=  c #1C1B1C",
"-  c #1A1719",
";  c #231C1C",
":  c #2A1D1C",
">  c #261514",
",  c #321C1D",
"<  c #381819",
"1  c #270C0B",
"2  c #24201E",
"3  c #2B221D",
"4  c #30221F",
"5  c #1F1F21",
"6  c #241E20",
"7  c #242222",
"8  c #2C2423",
"9  c #2B2926",
"0  c #2D2B2A",
"q  c #292728",
"w  c #322422",
"e  c #3A2523",
"r  c #322925",
"t  c #3B2B25",
"y  c #342C2A",
"u  c #3B2D2B",
"i  c #312728",
"p  c #3B312E",
"a  c #33312E",
"s  c #3D3433",
"d  c #3E3A3A",
"f  c #393534",
"g  c #45181C",
"h  c #4B1D22",
"j  c #452828",
"k  c #58282A",
"l  c #46322D",
"z  c #58382D",
"x  c #5B2E31",
"c  c #423433",
"v  c #4B3535",
"b  c #443A37",
"n  c #4B3C35",
"m  c #453B3A",
"M  c #4B3D3B",
"N  c #4E3739",
"B  c #553A35",
"V  c #553C3B",
"C  c #5B3D3B",
"Z  c #573835",
"A  c #652A2C",
"S  c #683739",
"D  c #6E3333",
"F  c #4D423E",
"G  c #45403D",
"H  c #52433E",
"J  c #5A423D",
"K  c #534137",
"L  c #67443C",
"P  c #69503C",
"I  c #4F3F40",
"U  c #6D3F41",
"Y  c #7D3F40",
"T  c #4E4443",
"R  c #4D4A47",
"E  c #534542",
"W  c #5C4542",
"Q  c #554944",
"!  c #5B4A45",
"~  c #554B49",
"^  c #5B4D4B",
"/  c #5D514D",
"(  c #5B514A",
")  c #5E5351",
"_  c #595654",
"`  c #614442",
"'  c #624B46",
"]  c #624D4A",
"[  c #6C4D4A",
"{  c #6B4844",
"}  c #794847",
"|  c #64524C",
" . c #6A534D",
".. c #68594E",
"X. c #76554B",
"o. c #645552",
"O. c #6B5652",
"+. c #665954",
"@. c #6C5A54",
"#. c #6D5D5A",
"$. c #665C5A",
"%. c #725B55",
"&. c #745E59",
"*. c #7A5E5A",
"=. c #785752",
"-. c #7B4F50",
";. c #6E615C",
":. c #74625B",
">. c #7B635D",
",. c #7D695E",
"<. c #736157",
"1. c #756561",
"2. c #7C6661",
"3. c #7D6A63",
"4. c #7A6C65",
"5. c #7E7067",
"6. c #854A4B",
"7. c #814446",
"8. c #884F51",
"9. c #845A54",
"0. c #895756",
"q. c #925D59",
"w. c #84524E",
"e. c #82645C",
"r. c #88665C",
"t. c #96655D",
"y. c #8D725D",
"u. c #816762",
"i. c #836B64",
"p. c #8B6C65",
"a. c #856E69",
"s. c #8B6E69",
"d. c #8C6562",
"f. c #966A67",
"g. c #8B7166",
"h. c #85726A",
"j. c #8C746B",
"k. c #8D796E",
"l. c #857065",
"z. c #92756C",
"x. c #9B736D",
"c. c #927A6E",
"v. c #987668",
"b. c #8E7671",
"n. c #8E7A71",
"m. c #937671",
"M. c #947C73",
"N. c #9B7D74",
"B. c #967D78",
"V. c #A26A67",
"C. c #A4766A",
"Z. c #A87774",
"A. c #B57B7A",
"S. c #A76F72",
"D. c #9C8276",
"F. c #9D847A",
"G. c #9E897C",
"H. c #968278",
"J. c #A2857B",
"K. c #AC857D",
"L. c #A48A7E",
"P. c #AB8D7D",
"I. c #A98675",
"U. c #B5897B",
"Y. c #AE937E",
"T. c #B1927E",
"R. c #B87D81",
"E. c #9E8982",
"W. c #A58C83",
"Q. c #AB8D83",
"!. c #A58B85",
"~. c #B78A85",
"^. c #AC9285",
"/. c #AC938A",
"(. c #AA9589",
"). c #B39384",
"_. c #B79A86",
"`. c #B3958B",
"'. c #B49A8D",
"]. c #BB9D8D",
"[. c #BA968A",
"{. c #AF9991",
"}. c #B59B92",
"|. c #BC9D93",
" X c #B89790",
".X c #BCA18E",
"XX c #BDA294",
"oX c #BDA59A",
"OX c #BBA498",
"+X c #BDA6A0",
"@X c #C48C8C",
"#X c #C3978B",
"$X c #C69A95",
"%X c #D59D9C",
"&X c #C1A28E",
"*X c #C2A494",
"=X c #C5A997",
"-X c #C3A59A",
";X c #CBA59C",
":X c #C4AA9C",
">X c #CAAC9D",
",X c #CBA695",
"<X c #D3A49D",
"1X c #CDB29E",
"2X c #C5ADA2",
"3X c #CBADA2",
"4X c #CEA7A0",
"5X c #D3ADA4",
"6X c #C7B1A3",
"7X c #CCB2A5",
"8X c #CCB5AA",
"9X c #CFB9AC",
"0X c #C7B3AA",
"qX c #D2B4A4",
"wX c #D4B9A5",
"eX c #D3B5A9",
"rX c #D4BBAC",
"tX c #D9BCAD",
"yX c #D9B5A8",
"uX c #D5BEB1",
"iX c #DABEB2",
"pX c #DBC0AD",
"aX c #D7C0B2",
"sX c #DBC3B5",
"dX c #DDC6B9",
"fX c #DFC9BB",
"gX c #DBC4B7",
"hX c #E1C5B6",
"jX c #E2C6BA",
"kX c #E2CBBD",
"lX c #E0C9B7",
"zX c #E3CEC2",
"xX c #E9CBC0",
"cX c #E6D1C5",
"vX c #EDD1C5",
"bX c #DFCBC0",
/* pixels */
"O $ * $ * 2 0 5 2 5 5 d 0 a d _ R - ; i y b E ^ | / ) ) _ R m d s d d I d _ o.;.G.G.OXaX+XaXaX9XaXrX9XaXuXgXgXuXuXgXbXbXbXzXzXzX",
"$ $ $ O 5 0 7 * 5 * a a 0 a R _ ; - 8 y s H ^ O.;.<.;.;.$._ ~ T R I I R I ~ o.4.4.H.OX+X+X6X9X9X6X9XaXaXuXgXbXgXgXgXgXbXbXzXzXcX",
"$ $ + * 7 7 = = O 5 9 0 9 d _ q % ; 8 u M ! @.:.4.h.h.4.1.$./ ~ R R T I ~ ~ $.#.4.G.OXOX1XaX6X0X0X9XaXaXaXgXgXgXgXbXgXgXkXfXcXcX",
"+ + $ 5 5 * * O O 7 7 = q R d 5 6 : y p K !  .,.l.n.n.n.5.;.) ~ ~ ~ ~ ~ I ~ _ o.5.E.(.OXOX+X0X7X0X9XaXaXgXaXbXbXbXbXbXbXkXcXxXcX",
"+ + $ = * $ *   * 7 = = a f 2 2 & : 8 c J  .@.2.h.n.H.B.5.1./ ^ ~ ~ ~ ~ ~ ~ ^ o.H.(.{.OXOX+X+X+X9XuXuXuXgXgXbXbXbXbXcXbXkXkXzXcX",
"  $ * * $ + $ + & 7 = = 0 7 5 = & 3 y m ! +.,.a.j.n.M.h.5.;.) ^ ~ ~ ~ ~ ~ ^ ^ 1.H.(.{.OXoX1X+X1X0X0X0X0X0X+XuX+XbXbXcXcXcXbXkXbX",
"    $ + + * + O 7 5 & ; 3 & 2 O % & 8 r p M ) 2.H.M.n.n.2.+./ ~ E R ~ ~ ~ ~ $.4.G.E.(..X6XaX:X+X2XOXOX+X{.{.+X+X0XaXbXbXcXcXcXbX",
"      + + 5   5 q 2 & 2 2 O % O   % ; & ; : > w F 4.n.n.4.| ^ Q T I R ~ ~ / #.5.G.G.(.OX0X0X6XOX}.{.!.!.E.!.R.E.(.+XaXbXcXcXcXbX",
"      $ * * + 9 7 2 5 2 & & & O % ; & 8 d 8 . > y > T &.#.! F F M F T E ~ / <.k.E.{.OX6XaXaX6XOX{.!.E.F.B.h.,.a.H.n.E.0XzXbXcXcX",
"    $ * = $ * 0 7 9 3 3 3 3 : ; 8 3 ; i s 6 @ @ * @ # w n M F M m M F ~ ~ / :.H.(.:XaXaXgXdX9XOX(.M.m.M.a.%.%.| | ;.j.H.+XzXcXcX",
"    = = * $ 9 a y y 9 p l l l p p p b G I u 8 # . . # : 8 i T F m M I T Q ..M.(.OXpXaXgXfXdXaXoXW.M.M.,.>.%.O.[ o.%.| :.5.OXbXcX",
"  * * * * * a d d b F H ..@.@...| ! H H ~ ~ ~ +.^ m 8 p c : c H M M F Q <.k.^.-X7XaXlXlXkXfX9XoX(.D.N.j.s.2.2.:.#.| ' O.;.5.(.gX",
"$ = * * * 5 f F F _ +.<.,.g.c.c.z.g.,.<...( ' | O.+.! H n l l J K K ' <.g.L.}.>XpXaXjXkXkXlX8XXX/.W.g.M.M.z.h.i.:.%.O.o.1.h.n.{.",
"* * * * * 9 d _ F +.;.5.k.D.D.D.D.G.G.D.M.j.e.:.@. .|  .O.O.' ( Q [  .>.z.^.-X5XaXpXkXkXkXpX8XXX`.Q.F.N.F.N.B.m.b.h.&.%.#.&.B.H.",
"* * * = = 9 G _ F ;.l.k.H.D.G.D.D.L.L.G.D.D.c.c.j.a.u.,.<.O. .] ' ` X.i.J.'.>XrXaXlXkXkXlXtX7X-X`.P.W.J.J.N.N.B.B.n.a.<.O.| 3.H.",
"+ $ = 5 5 9 G _ F 4.l.c.c.G.I.L.L.L.J.J.D.F.M.c.c.j.a.,.<...' ' ' <.M.^.XX-X3XrXsXlXkXhXpXtX3X*X/.J.J.D.F.F.J.F.W.E.H.n.2.:.O.h.",
"$ * 5 5 5 0 G R F 4.5.H.H.H.G.L.W.^.W.L.L.D.H.H.M.k.i.%.| ' ` %.z.J.`.|.4X5XeXeXiXhXjXhXiXtX7XXXQ.D.D.J.J.J.!./.`./.{./.G.h.&.:.",
"* = 5 * 5 0 G F F <.,.H.D.D.Y.(.(.(.W.L.L.G.D.c.k.u.&. .' J  .>.s.!.`.2X0XeXeXiXhXhXhXsXsXiXeX|.L.N.N.N.J.J.W./.}.OX+XoXOX/.H.n.",
"* 5 5 * & 9 G G H <...k.G.G.Y.(.^.^.L.L.L.F.H.g.u.<. .' ' '  . .*.x.~.$X4XeXiXiXiXjXiXsXsXtXsX>XQ.N.v.z.z.N.J.`.}.oX2X8X8X6XoX{.",
"= 5 $ $ 2 9 f a ( J ..H.G.Y.(.L.W.^.L.G.D.M.c.l.>.O.[ W ! ' ' [ O.e.B. X4XiXiXjXiXiXtXiXsXeXiXeXQ.c.r.r.p.m.N.L.'.-X3XrXuXrX8X6X",
"5 *   * = 2 a s H K ,.H.G.G.L.L.L.Q.^.G.M.M.j.e.O.' ' W W W ` ' { =.z./.-XiXjXjXxXuXrXiXsXwXyX7X^.g.9.e.r.j.v.J.^.].XX8XgXgX9X8X",
"* O $ $ = 9 y K K K 5.H.H.D.G.G.J.L.G.D.M.k.j.] J ` U W W H U W ` X.e.Z. X4XiXxXvXxXrXiXsXwXeX>XX.S L [ =.i.z.N./.XXXX:XaXdXaX6X",
"- + $ + 3 4 f G w ..l.k.H.D.D.G.D.G.D.c.j.j. .Z ` ` E U J V C C L [ =.f.I.`.;XiXjXjXiXiXhXtXwXyXc.z [ C J ' &.j.W.-X8X:X>XaXrX6X",
"@ @ $ = 2 w G 4 G ,.l.y.H.H.D.D.M.H.N.N.c.,.B L ` I V N t t N C L [ =.d.x.I.~.$X5XiXiXiXhXpXrXyXwXz. .&.2.J e ! u.'.sXsX6XoX>X>X",
"% % @ ; 7 b 8 t <.5.l.k.k.c.g.g.j.c.N.c.g.' Z J C j , > X X 1 v ` { X.9.f.f.C.I.#XyXtXpXhXhXpXqX:XZ.*.O.3.M w u j @.XXhXwX&X.X&X",
"- @ - ; y : w +.4.,.l.h.k.k.k.g.g.g.r.e.%.B C W B > X X X o o j C { } 9.r.t.t.V.T.,XyXtXpXlXpXqX-XQ.>.>.O.e w > 3 t .._.qX&X_._.",
"@ % ; 8 ; r | ;.<.4.i.l.l.l.h.i.r.e.%. .C l C ' I l > > X > , v C L } -.r.9.9.t.U.#XyXtXhXjXkXpX2XXXF.=.u.o.i : : 4 t X.T.#XT.Y.",
"- ; ; 8 m ) +.+.<.<.,.:.,.,.e.e.,.,.%.] B j v C U N v c l v N V L { } [ z X.w.9.I.#XyXpXhXjXkXhX7X3X;XN.[ a.&.l 4 e l S r.Y.T.I.",
": 8 f E ) / | | +.;.<.:.<.:.,.2.,.,.,.#.[ B j c v N I I I Z I U { [ 9.C 1 < L 0.C.,X<XyXjXkXzXlXsXeX7X2XF.X.*.m.X.J B z P y.U.I.",
"s m ~ ( ^ / ^ | | +.+.#.%.#.o.:.4.,.3.2.&.@.O.W I I I ] ] [ [ =.r.d.9.S 1 1 < w.t.U.yXpXjXkXkXdXdXrX7XeX8XQ.p.M.F.g. .L z L C.I.",
"G R ~ ^ ^ / | / o.| ~ +.+./ | $.<.:.1.:.<.1.:.%.=.&.*.4.s.d.d.x.N.Z.v.X.< > 1 S t.U.5XyXjXzXzXfXdXsXrXuXrXrXXXL.L.J.I.y.P z P I.",
"Q Q ( ^ ^ ^ ^ ^ ^ ^ ~ | / ^ ) o.+.+.1.1.1.2.2.a.h.j.m.Z.!.!.!.Q./.|.P.N.K > < k q.A.%XyXjXjXjXfXfXdXiXeXrXuXiX7XXX_.&X_.y.9.X.y.",
"E Q ^ ( ~ ~ ^ ^ ) ^ o.^ ^ o.) o.$.&.1.2.2.4.5.a.B.Z.!.`. X}.`.`. X$X|. Xm.j g k 6.C.#XyXhXhXjXfXdXjXgXuXrXaXsXsXeX*X=X1X].T.I.v.",
"R R ^ ~ Q Q Q ( o.] ~ I I I I ^ o.$.1.u.a.b.b.R.W.!.}.$X|.`.~.`.|.4X4X-X|.d.S S q.C.#X<XhXhXjXhXhXiXfXgXaXsXsXsXsXaX7X1X>X=X#XY.",
"T ~ ~ ~ H H H | o.E I I N I I ^ ] o.$.2.u.d.m.m.N.!.$X+X|. XW.Q.|.2X3X5X$XK.d.0.t.A.#XqXyXhXhXhXbXiXiXgXdXgXdXdXdXdXsXpXwX1X,X&X",
"T ~ ~ Q Q Q Q ( ^ N c u u s c c I I I I U U -.0.d.A. X;X$X`.Z.`.2X4X3XeX5X~.q.V.V.U.<XyXpXhXhXhXdXdXdXbXdXdXsXdXlXlXsXpXpXwX1X1X",
"E W ~ E Q Q ! Q ~ m u e , , , , < h e h j I A U -.d.Z.$X$X~.Q. X3X3X3XeXeX4Xx.t.K.,X5XqXiXsXdXdXdXfXdXbXfXfXfXfXkXkXlXlXpXpXwX1X",
"E E Q E H ! Q ! W V n j e , , < < < < h h k x x S U -.x. X X$X3X3X7X3X7XeXeX5X[.yXyXtXtXtXdXdXdXdXbXfXfXjXzXfXfXkXkXkXlXhXpXwXwX",
"F Q Q H H Q Q ! ( ! E J V V V Z N x x k g g h x x U Y 0.S.Z.~.<XeX8XeX0X3X8XyXiXiXiXsXiXsXdXdXdXzXfXbXjXzXkXfXfXkXkXkXlXhXpXpXwX",
"Q Q Q ! ! H ! '  . . .+.%.&.=.=.U -.8.d.8.U h g A U Y -.8.8.q.R.;XrXuX2X|.4XiXsXsXsXjXhXgXdXgXdXdXdXfXzXzXzXzXkXkXkXkXlXlXpXpXwX",
"T Q Q H Q ( ( ..O.+.@.%.:.,.>.*.d.d.d.q.R.V.f.7.A k U 7.8.8.6.8.S.;XuXeX0X8XrXuXfXgXdXgXfXgXlXfXfXfXdXzXzXkXkXbXkXkXlXkXlXhXpXwX",
"Q F F H H H J .. .@.%.<.>.&.*.*.2.d.f.f.q.R.R.R.R.8.A A 7.8.7.6.0.A.3XeX9X9X8X7XgXdXdXfXfXfXfXkXfXfXfXzXkXzXzXzXkXkXlXlXlXpXpXwX",
"F F H H H H ! | ] | +.&.:.*.,.*.*.d.R.b.d.R.S.R.@X@XR.8.A A Y 7.6.q.~.eX3X6X2X6X9XgXdXdXfXgXfXfXfXfXfXfXfXfXzXfXkXlXfXsXhXpXpX1X",
"F F F K K H Q P ' | @.&.*.u.2.>.1.d.1.a.f.d.0.V.R.@X@X%XR.Y A D 7.6.x.$X2X2X2X:X0XuXiXiXgXsXfXfXzXfXfXfXfXdXfXfXlXlXdXsXpXpXpXwX",
"F K H M K K E ! ' [ O.%.2.u.i.2.2.i.u.b.R.a.d.R.~.@X~.@X%X%XV.A D 7.8.Z.,X8X2XoX2X2X6X9XgXgXdXkXfXfXkXfXgXgXgXgXsXsXsXsXpXpXpXwX",
"F H H F F H J W ' |  .%.*.2.i.i.a.s.s.a.1.a.s.s.Z.~.~.~.@X%X%XA.D D Y 8.P.:X2XXXOXoXoX9XsXgXdXfXdXfXfXgXgXgXgXgXgXsXpXpXpXpXwX1X",
"H H H H H H H ! ^ | O.O.&.*.3.i.a.b.b.m.b.a.s.R.J.I.K.[.$X$X%X$XR.D D } f.[.|.`.XXXX{.OXrXsXfXdXfXfXfXdXsXaXaXiXsXsXpXaXwXpXwX1X",
"Q H H H W H W ! ' [ o.@.&.*.2.i.i.a.a.s.s.a.u.b.J.N.Q.$X*X%X%X$X$XA.D A 9.J.L.L.(.(.(.XXrXaXsXdXgXfXgXgXsXuXaXuXuXrXpXpXwXpX1X=X",
"F H Q H E W ! ' [ |  .O.*.>.,.u.u.u.i.p.u.u.s.N.J.Z.Q.`.$X;X;X5X<X$XC.k L t.c.v.G.G.(.1X6XaXaXgXdXdXdXgXaXaXrXaXrXrXrXrXwXwX1XXX",
"H Q H Q W W ! | @.+.%.&.&.,.u.u.u.>.*.*.*.>.z.J.J.W.^.^.}.|.4X7X5X5X$Xf.z L e.y.G.^.Y.XX6XaXaXaXdXdXdXgXaXgXaX9XaXrXwXwXwXqX=X.X",
"H E ! ! W ' ] @.%.:.2.2.i.p.a.i.i.e.=. .X.>.p.N.Z.W.).^.|.;X3XqXyXtX5X;XZ.L L *.c.P.(.oX7XaXaXaXgXgXgXgXaXrXrXpXrXrXwXqXwX1X.XY.",
"H Q Q ! ] o.O.&.,.i.h.j.b.m.m.B.M.g.*.[ [ =.e.p.M.J.Q.Q.|.-X4X3XrXyXyXtX>XK.X.=.k.L.(.OX1X9XaXaXgXgXaXaXaXrXrXrXeXeXrXwXwX=X.Xy.",
"F E W ! o.O.@.*.3.j.B.N.B.B.J.Z.W.Z.M.e.X.*.e.p.v.J.Q.[.|.;X>X5XeXiXrXiXtX5XD.r.v.P..XoX7XwXaXaXaXgXaX9XaXwXrXeXqX7XqX7X1X.X).P ",
"M E ! ! | O.&.1.3.b.B.N.!.W.!.!.W.Q.W.N.g.r.e.p.z.N.J.`.].|.-X>X5XyXyXiXiXpX,XL.D.Y..XoX1X9XaXwXaXaXaXwXaXrXeXqXqX1X1X1X&XXXy.l ",
"m T E ~ ^ O.#.&.2.j.b.B.!.!.Q./.W.Q./.Q.L.D.z.g.c.N.D.Q.`.|.*X-X>XqXyXrXpXpXpX.XL.Y.XXXX:X9XrXrXaXaXaXaXpXwXwXqXqX1X1X1X.X(.K r ",
"b m E E ] o.O.&.2.a.b.B.W.!.Q././.Q./.`.`.^.J.N.v.D.N.P.Q.].$X*X,X>X5XqX9XwX1X.X(..XXX:X7X8XwXrXaXaXaXaXrX9X9X8X7X1X1XXX.Xy.t 3 ",
"s s I ^ ) _ o.&.2.5.5.R.R.E.{.{././. X}.|. X/.Q.J.J.J.L.Q.[.].[.|.,X,X>X>X>X=X.X_..XXX:X8X7X8XwXrXrXpXeXrXeXqX7X>X>X=X*XL.K t & ",
"s I I I I U o.o.&.2.1.R.n.E.{.{.}.}. X|.$X+X|. X`.Q.L.Q.Q.).`.[.[.].=X,X>X=X=X&X.X.X:X6X7X7X8XwXrXrXrXqXeXqX1X>X,X=XXX=X@.G r O ",
"u m I I I o._ o.o.1.2.b.n.R.E.{./.}.|.2XoX-XoXOX|.].^.`.).).).T.)._.].&X*X=X=X.X.X.X=X=X1X7X8XqXqXqXqX7X7X7X>X,X=X.XXXH.K G & & ",
"u s I I I I I U o.O.&.2.4.b.E.{.{.}.}.|.+X-X2X4X-X|.|.[.[.).).).Y.).].].&X.X.X.X.X.XoX=X:X1X:X>X7X8X7X7X3X>X,X*X*X.X.X| H 4 % & ",
"y u c I I I I I ~ ) -.&.$.b.R.E.Q.`.}. X|.-X-X-X-X;X-XoX].[.[.Q.Y.T.)._..X_..X.X.XXX*X=X:X:X-X3X7X7X>X>X>X=X].*X.X.XH.P H & & 2 ",
"6 i u N s I I I I ^ o.$.1.4.5.H.!././.}.|.oX:X-X-X:X-X-X].].]._.).Y.)._._._..X_..XXX=XXX=X:X:X:X3X>X>X>X#X&X&X]..XG.K ( a O 2 2 ",
"; ; y c N I N I I U ^ ] $.1.4.B.B.!.Q.{.}.|.oX-XoX-X-X;X*XXX]..X_.T.Y.Y._._._._..XXXXXXX*X=X:X,X:X:X-X*X.X&X=X&X.X..K K & & 2 3 ",
"> ; , y s u c I I I ^ ^ $.$.1.4.s.m.!.Q.'.}.|.-X|.XX-X:X*X*X*X&X&X_.I.Y._._..X.X.X.X.X.X&XXX:X*XXX*X$X*X&X.X.XT.D.K G K & 2 9 9 "
};
